<?xml version="1.0" standalone="no"?>
<!DOCTYPE svg PUBLIC "-//W3C//DTD SVG 20010904//EN"
 "http://www.w3.org/TR/2001/REC-SVG-20010904/DTD/svg10.dtd">
<svg version="1.0" xmlns="http://www.w3.org/2000/svg"
 width="553.000000pt" height="468.000000pt" viewBox="0 0 553.000000 468.000000"
 preserveAspectRatio="xMidYMid meet">

<g transform="translate(0.000000,468.000000) scale(0.100000,-0.100000)"
fill="#000000" stroke="none">
<path d="M1666 4622 c-2 -4 0 -79 4 -167 24 -418 0 -1166 -50 -1579 l-10 -79
34 -46 c42 -57 125 -136 189 -180 84 -57 252 -132 309 -138 73 -7 94 10 91 73
-3 80 -52 163 -170 285 -124 128 -143 167 -143 287 0 78 22 188 41 207 7 7 14
4 20 -8 26 -45 76 -89 134 -118 152 -75 364 -38 477 84 20 21 41 36 46 33 35
-22 49 -260 19 -329 -9 -21 -65 -94 -124 -163 -134 -154 -167 -209 -168 -279
0 -78 13 -88 105 -83 61 4 87 11 136 37 59 31 213 158 362 297 l74 69 -21 90
c-70 317 -130 1043 -131 1593 0 67 -4 122 -9 122 -4 0 -21 -18 -36 -41 -40
-62 -162 -180 -235 -229 -105 -71 -197 -102 -317 -108 -118 -5 -204 15 -312
75 -75 42 -213 170 -267 249 -40 58 -40 58 -48 46z m312 -782 c70 -69 84 -211
27 -270 -79 -83 -195 -20 -195 107 0 65 20 117 62 161 40 40 68 41 106 2z
m740 0 c44 -44 65 -107 60 -180 -4 -52 -9 -66 -36 -93 -27 -26 -40 -32 -77
-32 -37 0 -50 6 -77 32 -27 27 -32 41 -36 91 -5 75 10 123 55 173 43 47 71 50
111 9z"/>
<path d="M4175 4259 c-184 -23 -403 -106 -540 -203 -253 -181 -377 -487 -321
-791 48 -260 168 -521 348 -757 74 -99 154 -189 313 -358 135 -143 198 -227
215 -287 11 -37 10 -46 -7 -80 -12 -23 -39 -50 -68 -68 -42 -26 -56 -29 -121
-29 l-74 1 0 -272 0 -272 57 -12 c167 -33 370 22 531 143 123 94 228 261 258
413 22 109 22 358 0 488 -34 195 -139 452 -280 683 -73 121 -117 210 -147 297
-20 58 -24 90 -24 185 0 100 3 121 23 161 61 125 184 187 315 159 90 -18 171
-102 192 -197 9 -42 -18 -133 -49 -170 -21 -24 -27 -26 -56 -17 -52 15 -75 53
-72 123 2 55 0 61 -29 85 -58 49 -132 27 -170 -51 -21 -42 -24 -62 -24 -168 0
-151 16 -203 136 -445 83 -168 139 -296 139 -319 0 -34 188 8 311 69 293 147
449 376 449 658 0 151 -50 364 -116 494 -121 239 -339 419 -603 498 -153 45
-401 62 -586 39z"/>
<path d="M1768 2400 c-20 -11 -42 -28 -47 -37 -9 -15 -10 -12 -11 15 l0 32
-100 0 -100 0 0 -1165 0 -1165 100 0 100 0 0 1075 c0 1062 0 1075 20 1095 23
23 68 26 96 6 19 -14 19 -38 22 -1095 l2 -1081 100 0 100 0 -2 1108 c-3 1100
-3 1107 -24 1147 -32 62 -74 85 -153 85 -45 -1 -77 -7 -103 -20z"/>
<path d="M140 1256 l0 -1156 100 0 100 0 0 325 0 325 48 0 c88 0 87 6 90 -346
l3 -304 99 0 100 0 0 313 c-1 347 -4 371 -63 421 l-34 30 31 21 c68 45 66 23
66 701 0 532 -2 617 -16 665 -21 70 -46 104 -97 132 -39 20 -58 22 -234 25
l-193 4 0 -1156z m288 1008 c52 -14 52 -14 52 -684 0 -622 -1 -651 -34 -672
-6 -4 -32 -8 -58 -8 l-48 0 0 685 0 685 33 0 c17 0 42 -3 55 -6z"/>
<path d="M2810 2340 l0 -70 60 0 60 0 0 -1085 0 -1085 100 0 100 0 0 1085 0
1085 60 0 60 0 0 70 0 70 -220 0 -220 0 0 -70z"/>
<path d="M979 2135 c-56 -18 -113 -77 -128 -132 -16 -58 -15 -1722 1 -1777 30
-97 131 -151 272 -144 109 6 166 33 204 96 26 46 27 52 30 225 l4 177 -96 0
-96 0 0 -155 c0 -152 -1 -156 -25 -180 -30 -30 -54 -31 -89 -4 l-26 20 0 250
0 249 165 0 165 0 0 599 c0 654 0 653 -58 714 -48 51 -98 70 -192 74 -56 2
-101 -2 -131 -12z m157 -133 c32 -21 34 -52 34 -571 l0 -521 -70 0 -70 0 0
528 c0 586 -2 572 63 572 18 0 37 -4 43 -8z"/>
<path d="M2349 2135 c-56 -18 -113 -77 -128 -132 -7 -24 -11 -197 -11 -471 l0
-433 93 3 92 3 5 433 5 434 24 19 c31 26 57 24 86 -6 l25 -24 0 -526 0 -525
-93 0 c-109 0 -151 -10 -188 -46 -46 -44 -50 -84 -47 -384 3 -254 5 -278 24
-314 27 -52 73 -76 146 -76 68 0 103 12 141 48 l27 26 0 -32 0 -32 90 0 90 0
-2 948 -3 949 -30 48 c-44 71 -101 98 -214 102 -56 2 -102 -2 -132 -12z m189
-1616 c-3 -235 -4 -252 -22 -265 -31 -22 -82 -18 -100 8 -13 19 -16 60 -16
243 0 263 0 262 98 264 l43 1 -3 -251z"/>
<path d="M3429 2135 c-56 -18 -113 -77 -128 -132 -16 -58 -15 -1722 1 -1777
30 -97 131 -151 272 -144 109 6 166 33 204 96 26 46 27 52 30 225 l4 177 -96
0 -96 0 0 -155 c0 -152 -1 -156 -25 -180 -30 -30 -54 -31 -89 -4 l-26 20 0
250 0 249 165 0 165 0 0 599 c0 654 0 653 -58 714 -48 51 -98 70 -192 74 -56
2 -101 -2 -131 -12z m157 -133 c32 -21 34 -52 34 -571 l0 -521 -70 0 -70 0 0
528 c0 586 -2 572 63 572 18 0 37 -4 43 -8z"/>
</g>
</svg>
