<?xml version="1.0" standalone="no"?>
<!DOCTYPE svg PUBLIC "-//W3C//DTD SVG 1.1//EN" "http://www.w3.org/Graphics/SVG/1.1/DTD/svg11.dtd" >
<svg xmlns="http://www.w3.org/2000/svg">
<metadata></metadata>
<defs>
<font id="generikaregular" horiz-adv-x="921" >
<font-face units-per-em="2048" ascent="1577" descent="-471" />
<missing-glyph horiz-adv-x="450" />
<glyph horiz-adv-x="0" />
<glyph unicode="&#xd;" horiz-adv-x="1069" />
<glyph unicode=" "  horiz-adv-x="450" />
<glyph unicode="&#x09;" horiz-adv-x="450" />
<glyph unicode="&#xa0;" horiz-adv-x="450" />
<glyph unicode="!" horiz-adv-x="751" d="M236 139q0 59 40.5 100.5t98.5 41.5q59 0 100 -41t41 -101q0 -57 -41 -98t-100 -41q-57 0 -98 41t-41 98zM248 1419q0 16 13 31.5t34 15.5h149q23 0 35.5 -15t12.5 -32l-41 -964q0 -18 -12.5 -33.5t-35.5 -15.5h-67q-20 0 -33.5 15t-13.5 34z" />
<glyph unicode="&#x22;" horiz-adv-x="831" d="M166 1419q-4 47 43 47h88q47 0 43 -47l-25 -538q-2 -23 -13 -36.5t-34 -13.5h-30q-20 0 -32.5 13.5t-15.5 36.5zM451 1419q-4 47 43 47h88q47 0 43 -47l-25 -538q-2 -23 -13.5 -36.5t-33.5 -13.5h-31q-20 0 -32.5 13.5t-14.5 36.5z" />
<glyph unicode="#" horiz-adv-x="1409" d="M41 516v57q0 23 14.5 39.5t44.5 16.5h306l32 219h-288q-31 0 -45.5 14.5t-14.5 36.5v57q0 23 14.5 39.5t45.5 16.5h309l59 381q4 29 20.5 44t34.5 15h68q23 0 37 -15.5t10 -43.5l-57 -381h225l59 381q10 59 50 59h71q51 0 45 -59l-55 -381h283q31 0 45 -16.5t14 -39.5 v-59q0 -23 -14.5 -36t-44.5 -13h-305l-33 -219h286q31 0 45.5 -16.5t14.5 -39.5v-57q0 -23 -14.5 -37t-45.5 -14h-307l-59 -406q-10 -59 -53 -59h-62q-23 0 -41 15.5t-14 43.5l59 406h-227l-57 -406q-10 -59 -56 -59h-61q-23 0 -41.5 15.5t-13.5 43.5l59 406h-283 q-31 0 -45 14.5t-14 36.5zM575 629h228l31 219h-228z" />
<glyph unicode="$" horiz-adv-x="854" d="M61 422v20q0 20 12.5 33.5t35.5 13.5h71q20 0 32.5 -13t12.5 -34v-22q0 -82 16.5 -135.5t44 -85t63.5 -44t77 -12.5q90 0 146.5 54.5t56.5 189.5q0 76 -40 131t-101.5 102.5t-131 93.5t-131 103t-101.5 132t-40 179q0 57 16.5 111.5t48 98.5t81 76t114.5 44v119 q0 18 12.5 33.5t34.5 15.5h70q20 0 33.5 -15.5t13.5 -33.5v-121q61 -12 108.5 -44t79 -75t47 -94t15.5 -104v-15q0 -20 -13.5 -33.5t-35.5 -13.5h-68q-20 0 -33.5 15.5t-13.5 31.5v4q0 76 -46 125.5t-124 49.5q-49 0 -82 -14.5t-54.5 -39t-30.5 -56.5t-9 -65q0 -74 40 -128 t101.5 -103t131 -96t131 -103.5t101.5 -128.5t40 -170q0 -186 -75 -288.5t-210 -124.5v-119q0 -16 -13.5 -31.5t-33.5 -15.5h-70q-23 0 -35 15t-12 32v119q-84 14 -138 55t-86 99.5t-45.5 131t-13.5 150.5z" />
<glyph unicode="%" horiz-adv-x="1275" d="M123 1161q0 150 45 227.5t178 77.5q70 0 113 -25.5t65.5 -67.5t30.5 -97t8 -115q0 -72 -8 -131t-30.5 -102t-65.5 -67.5t-113 -24.5q-72 0 -116 24.5t-67.5 67.5t-31.5 102.5t-8 130.5zM198.5 14.5q-10.5 14.5 0.5 32.5l675 1352q10 18 24.5 32.5t39.5 14.5h70 q20 0 28 -13.5t2 -33.5l-676 -1352q-10 -18 -24 -32.5t-39 -14.5h-70q-20 0 -30.5 14.5zM262 1159q0 -82 15.5 -135t68.5 -53q49 0 64.5 53t15.5 137q0 92 -16.5 129t-63.5 37q-51 0 -67.5 -38t-16.5 -130zM713 324q0 150 45 227.5t178 77.5q70 0 113 -25.5t65.5 -67.5 t30.5 -97.5t8 -114.5q0 -72 -8 -131.5t-30.5 -102.5t-65.5 -67.5t-113 -24.5q-72 0 -116 24.5t-67.5 67.5t-31.5 102.5t-8 131.5zM852 322q0 -82 15.5 -135.5t68.5 -53.5q49 0 64.5 53.5t15.5 137.5q0 92 -16.5 128.5t-63.5 36.5q-51 0 -67.5 -37.5t-16.5 -129.5z" />
<glyph unicode="&#x26;" horiz-adv-x="1003" d="M82 348q0 78 16.5 144.5t46 126t70.5 114.5t88 111q-18 37 -39.5 81t-42 91t-34 94t-13.5 92q0 49 15.5 97.5t46 85t78.5 59t116 22.5q129 0 186.5 -74.5t57.5 -189.5q0 -20 -3 -55t-19.5 -84t-52.5 -112.5t-101 -137.5l198 -414q16 47 22.5 97.5t6.5 117.5q0 20 10 35 t35 15h80q23 0 31 -14.5t8 -37.5q0 -57 -4 -107t-15.5 -97.5t-31 -95.5t-52.5 -103q14 -27 24.5 -36t29.5 -9h30q51 0 52 -41v-76q0 -47 -52 -47h-88q-47 0 -71.5 20.5t-36.5 45.5q-66 -55 -133.5 -70.5t-130.5 -15.5q-66 0 -125.5 25.5t-104.5 73.5t-71.5 115.5 t-26.5 153.5zM246 348q-2 -92 49 -148.5t117 -56.5q63 0 105 16.5t81 63.5l-217 457q-63 -82 -99 -161t-36 -171zM342 1202q0 -31 23.5 -94.5t54.5 -128.5q35 47 60.5 103.5t25.5 119.5q0 47 -12.5 74t-63.5 27q-29 0 -46 -9.5t-26.5 -25t-12.5 -33t-3 -33.5z" />
<glyph unicode="'" horiz-adv-x="546" d="M166 1419q-4 47 43 47h88q47 0 43 -47l-25 -538q-2 -23 -13 -36.5t-34 -13.5h-30q-20 0 -32.5 13.5t-15.5 36.5z" />
<glyph unicode="(" horiz-adv-x="686" d="M143 711q0 221 82 439t236 394q16 18 38.5 16.5t45.5 -18.5l33 -26q20 -16 15 -46t-24 -51q-33 -37 -74.5 -93t-78.5 -141t-62.5 -202t-25.5 -272q0 -156 25.5 -272.5t62.5 -201.5t79 -141.5t74 -93.5q18 -20 23.5 -50t-14.5 -46l-33 -27q-23 -16 -45.5 -18t-38.5 16 q-78 88 -136.5 188.5t-99.5 208t-61.5 218t-20.5 219.5z" />
<glyph unicode=")" horiz-adv-x="686" d="M93.5 -48q4.5 30 23.5 50q33 37 74.5 93.5t78.5 141.5t62.5 201.5t25.5 272.5t-25.5 272.5t-62.5 201.5t-78.5 141t-74.5 93q-18 20 -23.5 50t15.5 47l32 26q23 16 45.5 18.5t38.5 -16.5q154 -176 236 -394t82 -439q0 -109 -20.5 -219.5t-61.5 -218t-100.5 -208 t-135.5 -188.5q-16 -18 -38.5 -16t-45.5 18l-32 27q-20 16 -15.5 46z" />
<glyph unicode="*" horiz-adv-x="1015" d="M92 1022v51q0 23 17.5 39t37.5 16l228 -8l-125 209q-10 20 -7 45t25 35l43 23q25 12 46.5 3.5t33.5 -26.5l115 -219l117 221q12 18 35.5 25.5t43.5 -2.5l39 -25q27 -12 30 -35.5t-7 -42.5l-135 -211l237 8q23 0 40.5 -16t17.5 -39v-51q0 -25 -17.5 -40t-40.5 -15l-227 8 l125 -213q10 -16 5 -39t-28 -35l-39 -26q-23 -12 -46 -4t-33 26l-119 227l-113 -225q-10 -20 -32.5 -28.5t-45.5 4.5l-39 26q-23 12 -28.5 36t4.5 40l125 211l-228 -8q-20 0 -37.5 15t-17.5 40z" />
<glyph unicode="+" horiz-adv-x="1185" d="M123 434v70q0 23 15.5 35t33.5 12h340v340q0 18 13.5 33.5t33.5 15.5h70q23 0 35 -15.5t12 -33.5v-340h340q16 0 31.5 -12.5t15.5 -34.5v-70q0 -20 -15.5 -33.5t-31.5 -13.5h-340v-340q0 -16 -12.5 -31.5t-34.5 -15.5h-70q-20 0 -33.5 15.5t-13.5 31.5v340h-340 q-18 0 -33.5 13.5t-15.5 33.5z" />
<glyph unicode="," horiz-adv-x="602" d="M156 150q2 31 14 56t32.5 44.5t47 30t57.5 8.5q59 -4 99 -48t40 -104q2 -39 -2 -87t-22.5 -101t-53 -109.5t-96.5 -109.5q-25 -25 -48 -23t-40 19q-37 39 15 94q45 47 79.5 94t38.5 82h-24q-31 2 -56.5 15.5t-44 35t-28.5 48t-8 55.5z" />
<glyph unicode="-" horiz-adv-x="774" d="M123 467v70q0 20 15.5 33.5t31.5 13.5h432q18 0 33.5 -13.5t15.5 -33.5v-70q0 -23 -15 -35t-34 -12h-432q-16 0 -31.5 12t-15.5 35z" />
<glyph unicode="." horiz-adv-x="587" d="M154 139q0 59 41 100.5t98 41.5q59 0 100 -41t41 -101q0 -57 -41 -98t-100 -41q-57 0 -98 41t-41 98z" />
<glyph unicode="/" horiz-adv-x="698" d="M100 47l387 1352q6 20 22.5 33.5t41.5 13.5h76q20 0 28.5 -13.5t1.5 -33.5l-387 -1352q-6 -20 -22.5 -33.5t-40.5 -13.5h-76q-20 0 -28.5 13.5t-2.5 33.5z" />
<glyph unicode="0" horiz-adv-x="950" d="M115 726q0 185 10 386q2 45 14.5 106.5t48 117t104 93t183.5 37.5t183.5 -37.5t104.5 -93t48 -117t14 -106.5q10 -201 10.5 -386t-10.5 -388q-2 -45 -14 -106.5t-48 -118t-104.5 -95t-183.5 -38.5t-183.5 38.5t-104 95t-48 118t-14.5 106.5q-10 203 -10 388zM279 726 q2 -153 8 -323q2 -47 9 -94t27.5 -84t56.5 -59.5t95 -22.5q57 0 94 22.5t57.5 59.5t28 84t9.5 94q6 170 8 323t-8 321q-2 47 -10.5 93t-28 81.5t-56.5 58.5t-94 23q-59 0 -95 -23t-55.5 -58.5t-27.5 -81.5t-10 -93q-10 -168 -8 -321z" />
<glyph unicode="1" horiz-adv-x="788" d="M12.5 1148.5q3.5 20.5 18.5 31.5l286 250q10 8 21.5 12t30.5 4h106q20 0 33.5 -15.5t13.5 -31.5v-1350q0 -18 -13 -33.5t-34 -15.5h-69q-23 0 -35.5 15.5t-12.5 33.5v1215l-225 -207q-14 -12 -33.5 -11t-31.5 15l-45 51q-14 16 -10.5 36.5z" />
<glyph unicode="2" horiz-adv-x="890" d="M92 1098v32q0 147 89 241.5t268 94.5q82 0 144 -27.5t104 -74.5t62.5 -110.5t20.5 -135.5q0 -111 -71.5 -237.5t-212.5 -268.5q-41 -41 -81 -89t-74 -99t-54.5 -105.5t-20.5 -105.5v-49h484q18 0 33.5 -12.5t15.5 -34.5v-70q0 -20 -15.5 -33.5t-33.5 -13.5h-607 q-18 0 -33.5 13.5t-15.5 33.5v150q0 78 26.5 154.5t67.5 144t89.5 124t89.5 97.5q111 109 179 214t68 187q0 74 -36.5 129.5t-128.5 55.5q-88 0 -140.5 -47.5t-52.5 -139.5v-18q0 -18 -13.5 -33.5t-33.5 -15.5h-70q-23 0 -35 15t-12 34z" />
<glyph unicode="3" horiz-adv-x="913" d="M102 324v32q0 18 12.5 34t35.5 16h69q20 0 33.5 -15.5t13.5 -34.5v-32q0 -20 7.5 -51t26.5 -60t53 -49.5t85 -20.5q59 0 101.5 17.5t68 58.5t33.5 111.5t0 175.5q-2 23 -7 53.5t-25.5 59t-61.5 51t-115 28.5l-29 2q-18 2 -33.5 12.5t-15.5 32.5v66q0 20 13.5 33.5 t35.5 15.5l46 4q23 2 54.5 9.5t61 30t51 65.5t21.5 121q0 41 -8 78.5t-28.5 67.5t-55.5 48.5t-86 18.5q-98 0 -143.5 -38t-45.5 -122v-10q0 -18 -11 -34t-32 -16h-73q-23 0 -35.5 15.5t-12.5 34.5v20q0 68 22 125t65 99t109.5 65.5t156.5 23.5t154.5 -31.5t106.5 -84 t61.5 -121t19.5 -139.5q0 -43 -4 -86t-18.5 -83t-42 -75t-72.5 -64q51 -29 91 -85t50 -171q8 -109 -1 -208t-49 -173.5t-115 -119.5t-198 -45q-74 0 -136 25.5t-107 71.5t-71 109.5t-26 137.5z" />
<glyph unicode="4" horiz-adv-x="870" d="M51 299v66q0 14 3 27.5t7 23.5l359 985q8 20 17 32.5t26 12.5h100q29 0 33 -17.5t0 -27.5l-363 -995h277v253q0 16 13.5 32t33.5 16h70q20 0 33.5 -15.5t13.5 -32.5v-253h127q18 0 33.5 -12.5t15.5 -35.5v-69q0 -20 -15.5 -33.5t-33.5 -13.5h-127v-193q0 -18 -12.5 -33.5 t-34.5 -15.5h-70q-20 0 -33.5 15.5t-13.5 33.5v193h-401q-20 0 -39 16t-19 41z" />
<glyph unicode="5" horiz-adv-x="952" d="M102 330v26q0 18 12.5 34t35.5 16h69q20 0 33.5 -15.5t13.5 -34.5v-26q0 -33 9.5 -67t31 -60.5t56 -43t83.5 -16.5q59 0 97.5 19.5t61 54.5t31.5 81t9 99v226q0 47 -6 86t-25.5 66.5t-53.5 41.5t-89 14q-29 0 -61.5 -9t-61.5 -28.5t-49 -48t-25 -67.5q-4 -39 -19 -53.5 t-38 -14.5h-65q-49 0 -43 54l65 735q2 20 16.5 33.5t32.5 13.5h475q18 0 34 -13.5t16 -33.5v-70q0 -23 -15.5 -35t-34.5 -12h-366l-37 -344q51 37 94 47t98 10q143 0 232.5 -90t89.5 -270v-254q0 -84 -21.5 -156.5t-66.5 -127t-112.5 -86t-162.5 -31.5q-72 0 -135 24.5 t-109 70.5t-73 110.5t-27 144.5z" />
<glyph unicode="6" horiz-adv-x="897" d="M113 403v656q0 92 19.5 166.5t60 129t105 83t157.5 28.5q68 0 126 -15t101 -49t66.5 -88t23.5 -134q0 -18 -13.5 -34t-33.5 -16h-70q-23 0 -35 16t-12 34q0 76 -42 99.5t-111 23.5q-92 0 -135.5 -55.5t-43.5 -190.5v-148q47 47 97.5 56.5t95.5 9.5q156 0 246 -85t90 -276 v-233q0 -47 -4 -82t-11.5 -64.5t-19.5 -56t-29 -55.5q-43 -72 -115.5 -107.5t-164.5 -35.5q-84 0 -143.5 26.5t-106.5 73.5q-18 18 -35.5 40.5t-31 57.5t-22.5 89.5t-9 135.5zM276 377q0 -106 44.5 -170t140.5 -64q100 0 139 63.5t39 170.5v231q0 39 -7 76t-26.5 64.5 t-52.5 45t-84 17.5q-53 0 -90 -19.5t-59.5 -48t-33 -64.5t-10.5 -67v-235z" />
<glyph unicode="7" horiz-adv-x="851" d="M72 1329v70q0 23 15 35t34 12h581q20 0 34 -16.5t14 -32.5v-109q0 -37 -17.5 -93t-41 -113.5t-46 -106.5t-33.5 -68q-33 -63 -65.5 -131.5t-59 -165t-44 -230.5t-17.5 -331q0 -18 -13.5 -33.5t-33.5 -15.5h-80q-23 0 -35 15.5t-12 33.5q0 127 6 229.5t21.5 192.5t42 174 t67.5 176q25 53 56.5 119t60.5 130.5t49 120.5t20 91h-454q-18 0 -33.5 13.5t-15.5 33.5z" />
<glyph unicode="8" horiz-adv-x="933" d="M102 432q0 78 15.5 136.5t39 101.5t51.5 69.5t52 42.5q-45 33 -71.5 75t-40 86t-17.5 87t-4 80q0 57 16.5 120.5t56.5 116t104.5 86t162.5 33.5t162.5 -33.5t104.5 -86t56.5 -116t16.5 -120.5q0 -37 -4 -80t-18.5 -87t-40 -86t-70.5 -75q25 -16 52.5 -42.5t51 -69.5 t38.5 -101.5t15 -136.5q0 -213 -83.5 -332.5t-280.5 -119.5t-281 119.5t-84 332.5zM266 426q0 -35 6.5 -83t26.5 -93t59 -76t107 -31t108.5 31t61 76t27 93t6.5 83q0 121 -51.5 196.5t-147.5 75.5h-2q-98 0 -149.5 -75.5t-51.5 -196.5zM291 1094q0 -123 49 -174.5t125 -51.5 q78 0 128 51.5t50 174.5q0 94 -40 151.5t-136 57.5t-136 -57.5t-40 -151.5z" />
<glyph unicode="9" horiz-adv-x="903" d="M92 852l2 221q0 86 19.5 158t60.5 124t105.5 81.5t156.5 29.5q193 0 274 -96t81 -319v-664q0 -92 -18.5 -167t-59.5 -129t-105.5 -82.5t-156.5 -28.5q-162 0 -255.5 92t-93.5 241q0 18 13.5 33.5t34.5 15.5h67q23 0 36 -15.5t13 -33.5q0 -86 51.5 -128t133.5 -42 q88 0 132 52.5t44 193.5v174q-41 -47 -94.5 -59t-98.5 -12q-72 0 -134 20t-108.5 64.5t-73 112t-26.5 163.5zM256 850q0 -41 7 -77t27.5 -62.5t55.5 -41t88 -14.5q106 0 149.5 59.5t43.5 143.5v189q0 86 -11.5 137t-35 77.5t-59.5 34t-83 7.5q-100 0 -141 -54.5t-41 -183.5 v-215z" />
<glyph unicode=":" horiz-adv-x="587" d="M174 139q0 59 41 100.5t98 41.5q59 0 100.5 -41t41.5 -101q0 -57 -41 -98t-101 -41q-57 0 -98 41t-41 98zM174 879q0 59 41 100t98 41q59 0 100.5 -41t41.5 -100q0 -57 -41 -98.5t-101 -41.5q-57 0 -98 41.5t-41 98.5z" />
<glyph unicode=";" horiz-adv-x="602" d="M176 150q2 31 14.5 56t33 44.5t47 30t57.5 8.5q59 -4 99 -48t40 -104q2 -39 -2 -87t-22.5 -101t-53.5 -109.5t-96 -109.5q-25 -25 -48.5 -23t-39.5 19q-37 39 14 94q45 47 80 94t39 82h-25q-31 2 -56.5 15.5t-43.5 35t-28.5 48t-8.5 55.5zM180 879q0 59 41 100t98 41 q59 0 100.5 -41t41.5 -100q0 -57 -41 -98.5t-101 -41.5q-57 0 -98 41.5t-41 98.5z" />
<glyph unicode="&#x3c;" horiz-adv-x="845" d="M82 518v62q0 20 10 33.5t25 21.5l585 377q23 14 42.5 12t19.5 -33v-96q0 -16 -8 -31.5t-39 -36.5l-436 -280l448 -295q35 -23 35 -57v-113q0 -18 -10.5 -27.5t-36.5 6.5l-600 398q-14 8 -24.5 24.5t-10.5 34.5z" />
<glyph unicode="=" horiz-adv-x="1021" d="M123 279v69q0 20 15.5 33.5t31.5 13.5h680q18 0 33.5 -13t15.5 -34v-69q0 -23 -15.5 -35.5t-33.5 -12.5h-680q-16 0 -31.5 12.5t-15.5 35.5zM123 653v70q0 20 15.5 33.5t31.5 13.5h680q18 0 33.5 -13.5t15.5 -33.5v-70q0 -23 -15.5 -35t-33.5 -12h-680q-16 0 -31.5 12.5 t-15.5 34.5z" />
<glyph unicode="&#x3e;" horiz-adv-x="845" d="M82 82v113q0 35 35 57l448 295l-436 280q-31 20 -39 36t-8 32v96q0 31 19.5 33t41.5 -12l586 -377q14 -8 24.5 -21.5t10.5 -33.5v-62q0 -18 -10.5 -34.5t-24.5 -24.5l-600 -398q-27 -16 -37 -7t-10 28z" />
<glyph unicode="?" horiz-adv-x="784" d="M31 1087q0 193 90 287t248 94q88 0 153.5 -24.5t107.5 -67.5t62.5 -101t20.5 -124q0 -68 -12.5 -120t-33 -95t-47 -79t-55.5 -71t-52.5 -65.5t-39.5 -63t-25.5 -70.5t-9.5 -87v-43q0 -20 -13 -33.5t-34 -13.5h-69q-23 0 -35.5 13t-12.5 34v67q0 66 15.5 115t41 91 t57.5 80t65 81q29 37 48 62.5t29.5 52t15.5 59.5t5 86q0 27 -8 55.5t-29.5 52t-54.5 39t-82 15.5q-57 0 -92 -19.5t-54.5 -50.5t-26.5 -72t-7 -84q0 -16 -15.5 -31.5t-36.5 -15.5h-67q-23 0 -35 13.5t-12 33.5zM229 139q0 59 41 100.5t99 41.5q59 0 100 -41t41 -101 q0 -57 -41 -98t-100 -41q-57 0 -98.5 41t-41.5 98z" />
<glyph unicode="@" horiz-adv-x="1179" d="M113 522q0 92 13 186.5t50 169t103.5 122t175.5 47.5t170 -40t92 -110t37 -166t4 -209l-4 -254q-2 -125 57 -125q18 0 34.5 8.5t29 51.5t19.5 135t7 262q0 61 -2 138t-12 155t-30.5 151.5t-58.5 131t-97.5 92.5t-143.5 35h-47q-98 0 -152.5 -37.5t-54.5 -94.5 q0 -20 -13.5 -33.5t-35.5 -13.5h-64q-20 0 -35.5 15.5t-15.5 31.5q0 57 22.5 110.5t70 94.5t119 65.5t171.5 24.5h41q115 0 197 -40t137 -106.5t89 -153.5t51.5 -181t22.5 -191.5t5 -181.5v-138.5t-6 -142t-19.5 -134t-40 -112.5t-68.5 -76.5t-106 -28.5q-74 0 -106.5 29.5 t-48.5 62.5q-37 -47 -85 -69.5t-134 -22.5q-109 0 -175.5 46t-102.5 120.5t-48 173t-12 202.5zM276 520q0 -188 35 -282.5t140 -94.5q53 0 81.5 27t43 76t16.5 119.5t2 156.5q0 113 -4 183.5t-17.5 110.5t-41 53.5t-76.5 13.5q-61 0 -96 -33t-53.5 -85t-24 -116.5 t-5.5 -128.5z" />
<glyph unicode="A" horiz-adv-x="868" d="M76 47l270 1352q4 20 14.5 33.5t32.5 13.5h82q37 0 47 -47l271 -1352q1 -6 1 -11q0 -12 -8 -22q-10 -14 -32 -14h-80q-41 0 -49 47l-52 240h-280l-49 -240q-8 -47 -49 -47h-80q-23 0 -33 14q-7 10 -7 22q0 5 1 11zM322 451h225l-80 507l-29 277h-8l-29 -277z" />
<glyph unicode="B" horiz-adv-x="958" d="M147 49v1350q0 23 15.5 35t32.5 12h231q86 0 149.5 -8t106.5 -33q74 -41 109.5 -124t35.5 -181q0 -160 -32 -230q-23 -43 -45.5 -63.5t-57.5 -38.5q88 -29 126 -109.5t38 -216.5q0 -80 -10 -158.5t-48 -142t-111 -102.5t-198 -39h-294q-20 0 -34 15.5t-14 33.5zM311 164 h168q51 0 91 11t68 42t42 86t14 146q0 72 -16 116.5t-49 69t-81 34t-112 9.5h-125v-514zM311 842h129q47 0 89 5t73 28.5t48.5 73.5t17.5 143q0 68 -18.5 105.5t-50.5 57t-77 23.5t-98 4h-113v-440z" />
<glyph unicode="C" horiz-adv-x="874" d="M100 721q0 96 3 193.5t12 199.5q2 45 13 105.5t48 116t108.5 93t194.5 37.5q100 0 163 -35.5t97.5 -86t47 -105.5t12.5 -94v-72q0 -20 -12.5 -33.5t-34.5 -13.5h-70q-20 0 -33.5 13.5t-13.5 33.5v29q0 37 -8.5 72.5t-27.5 64.5t-51 46.5t-79 17.5q-61 0 -97 -20.5 t-56.5 -54.5t-27.5 -79t-9 -92q-6 -92 -9.5 -173t-4.5 -158v-39q0 -59 2 -117q3 -78 9 -167q2 -47 10.5 -93t29 -83t57.5 -60.5t98 -23.5q51 0 86 20.5t55.5 55.5t29.5 79t9 91v74q0 20 12.5 33.5t34.5 13.5h70q20 0 33.5 -13.5t13.5 -33.5v-139q0 -45 -14.5 -103.5 t-52 -112t-107.5 -90t-180 -36.5q-113 0 -179.5 38.5t-102.5 94t-48 114t-14 97.5q-8 104 -12.5 201.5t-4.5 193.5z" />
<glyph unicode="D" horiz-adv-x="985" d="M147 49v1350q0 16 13.5 31.5t34.5 15.5h315q113 0 179.5 -34t101 -83t47 -103.5t18.5 -92.5q28 -198 28 -391v-13q-1 -199 -24 -405q-4 -45 -16.5 -101.5t-49 -105.5t-108.5 -83t-194 -34h-297q-20 0 -34 15.5t-14 33.5zM309 164h193q61 0 97 18.5t56.5 51t27.5 74.5 t13 89q18 155 18 297v35q-2 158 -22 324q-6 45 -13 87t-27.5 73.5t-55.5 50t-96 18.5h-191v-1118z" />
<glyph unicode="E" horiz-adv-x="843" d="M147 49v1350q0 16 13.5 31.5t34.5 15.5h524q18 0 33.5 -12.5t15.5 -34.5v-70q0 -20 -15.5 -33.5t-33.5 -13.5h-408v-453h351q18 0 33.5 -12t15.5 -35v-69q0 -20 -15.5 -33.5t-33.5 -13.5h-351v-502h422q18 0 33.5 -12.5t15.5 -34.5v-70q0 -20 -15 -33.5t-34 -13.5h-538 q-20 0 -34 15.5t-14 33.5z" />
<glyph unicode="F" horiz-adv-x="808" d="M147 49v1350q0 16 13.5 31.5t34.5 15.5h524q18 0 33.5 -12.5t15.5 -34.5v-70q0 -20 -15.5 -33.5t-33.5 -13.5h-408v-453h351q18 0 33.5 -12t15.5 -35v-69q0 -20 -15.5 -33.5t-33.5 -13.5h-351v-617q0 -18 -12 -33.5t-35 -15.5h-69q-20 0 -34 15.5t-14 33.5z" />
<glyph unicode="G" horiz-adv-x="909" d="M100 718q-1 16 -1 31q0 173 16 343q4 57 17 123.5t48 122t100.5 92t176.5 36.5q117 0 183.5 -40t100 -95t42 -112.5t8.5 -92.5v-26q0 -16 -12.5 -31.5t-33.5 -15.5h-71q-23 0 -35 15t-12 32q0 33 -3 68.5t-18.5 65.5t-51.5 49.5t-99 19.5q-55 0 -89 -18.5t-52.5 -50.5 t-25.5 -74t-12 -89q-12 -157 -12 -307v-43q2 -170 15 -340q10 -123 53 -180.5t123 -57.5q61 0 97 23.5t54.5 62.5t23.5 86t5 95v221h-178q-16 0 -31.5 13t-15.5 34v63q0 23 15 35t32 12h342v-741q0 -16 -13.5 -31.5t-33.5 -15.5h-62q-23 0 -33 12.5t-12 28.5l-2 16 q-41 -43 -88 -59t-100 -16q-106 0 -171 43t-102 101t-51 119.5t-16 100.5q-14 184 -15 372z" />
<glyph unicode="H" horiz-adv-x="1001" d="M147 49v1350q0 16 13.5 31.5t34.5 15.5h69q23 0 35 -15.5t12 -31.5v-570h379v570q0 16 13.5 31.5t33.5 15.5h70q23 0 35 -15.5t12 -31.5v-1350q0 -18 -12.5 -33.5t-34.5 -15.5h-70q-20 0 -33.5 15.5t-13.5 33.5v617h-379v-617q0 -18 -12 -33.5t-35 -15.5h-69 q-20 0 -34 15.5t-14 33.5z" />
<glyph unicode="I" horiz-adv-x="512" d="M174 49v1350q0 16 13.5 31.5t33.5 15.5h70q23 0 35 -15.5t12 -31.5v-1350q0 -18 -12.5 -33.5t-34.5 -15.5h-70q-20 0 -33.5 15.5t-13.5 33.5z" />
<glyph unicode="J" horiz-adv-x="835" d="M10 428q0 16 13.5 31.5t33.5 15.5h70q23 0 35 -15.5t12 -31.5q0 -51 1 -82t2 -50.5t4 -30.5t9 -25q16 -41 53.5 -69t92.5 -28q49 0 83 19.5t53.5 51.5t27.5 75t8 92v1018q0 16 13.5 31.5t33.5 15.5h70q23 0 35 -15.5t12 -31.5v-1018q0 -68 -11.5 -139.5t-47 -129 t-103.5 -94t-180 -36.5q-74 0 -126 21.5t-88 53t-57.5 71.5t-31.5 77q-12 45 -14.5 99t-2.5 124z" />
<glyph unicode="K" horiz-adv-x="933" d="M147 47v1352q0 18 14.5 32.5t33.5 14.5h69q18 0 32.5 -14.5t14.5 -32.5v-588l351 600q10 16 20 25.5t33 9.5h106q10 0 19.5 -6t9.5 -17q0 -16 -6 -24l-316 -537l340 -815q4 -8 4 -15q0 -10 -6 -18q-10 -14 -28 -14h-95q-23 0 -34 14.5t-19 32.5l-280 666l-99 -176v-490 q0 -20 -14 -33.5t-33 -13.5h-69q-18 0 -33 14.5t-15 32.5z" />
<glyph unicode="L" horiz-adv-x="770" d="M147 49v1350q0 16 13.5 31.5t34.5 15.5h69q23 0 35 -15.5t12 -31.5v-1235h394q18 0 33.5 -12.5t15.5 -34.5v-70q0 -20 -15.5 -33.5t-33.5 -13.5h-510q-20 0 -34 15.5t-14 33.5z" />
<glyph unicode="M" horiz-adv-x="1159" d="M154 49v1350q0 16 13 31.5t36 15.5h129q23 0 33 -12.5t14 -34.5l158 -649l38 -226h9l39 226l157 651q10 45 47 45h131q23 0 35.5 -15.5t12.5 -31.5v-1350q0 -18 -12.5 -33.5t-35.5 -15.5h-69q-18 0 -32.5 15.5t-14.5 33.5v531l24 632h-8l-196 -893q-4 -25 -14.5 -37 t-33.5 -12h-69q-18 0 -29.5 13.5t-17.5 35.5l-197 893h-8l24 -632v-531q0 -18 -12 -33.5t-35 -15.5h-67q-23 0 -36 15.5t-13 33.5z" />
<glyph unicode="N" horiz-adv-x="1030" d="M147 49v1350q0 18 13.5 32.5t34.5 14.5h122q23 0 32 -15.5t16 -31.5l385 -1145l-31 412v731q0 18 12 33.5t35 15.5h70q20 0 33.5 -14.5t13.5 -34.5v-1350q0 -18 -13.5 -32.5t-33.5 -14.5h-123q-23 0 -33 15.5t-14 31.5l-387 1145l32 -432v-711q0 -18 -12 -33.5t-35 -15.5 h-69q-20 0 -34 14.5t-14 34.5z" />
<glyph unicode="O" d="M100 726v16q0 178 11 370q2 45 14 106.5t48 117t104.5 93t183.5 37.5t183.5 -37.5t104 -93t48 -117t14.5 -106.5q10 -201 10 -386t-10 -388q-2 -45 -14.5 -106.5t-48 -118t-104 -95t-183.5 -38.5t-183.5 38.5t-104.5 95t-48 118t-14 106.5q-11 203 -11 388zM264 726 q2 -153 8 -323q2 -47 9.5 -94t28 -84t56 -59.5t95.5 -22.5q57 0 94 22.5t57.5 59.5t27.5 84t9 94q6 170 8 323v51q0 130 -8 270q-2 47 -10 93t-27.5 81.5t-56.5 58.5t-94 23q-59 0 -95 -23t-55.5 -58.5t-28 -81.5t-10.5 -93q-8 -140 -9 -270q1 -25 1 -51z" />
<glyph unicode="P" horiz-adv-x="890" d="M147 47v1352q0 16 13.5 31.5t34.5 15.5h247q121 0 204 -20.5t130 -92.5q66 -98 66 -286q0 -147 -40 -248t-145 -142q-47 -18 -127.5 -21t-218.5 -3v-586q0 -16 -12 -31.5t-35 -15.5h-69q-20 0 -34 15.5t-14 31.5zM311 797h135q59 0 98.5 3t67.5 25q41 31 53.5 88.5 t12.5 141.5q0 86 -18.5 132t-51.5 68q-16 10 -32.5 15.5t-47 7.5t-82 2h-135.5v-483z" />
<glyph unicode="Q" d="M100 726v16q0 178 11 370q2 45 14 106.5t48 117t104.5 93t183.5 37.5t183.5 -37.5t104 -93t48 -117t14.5 -106.5q10 -201 10 -386t-10 -388q-2 -29 -6 -64.5t-15.5 -72.5t-32 -73t-50.5 -67l61 -104q10 -16 7 -35.5t-23 -30.5l-60 -34q-10 -6 -21 -6q-7 0 -15 2 q-19 6 -29 22l-66 115q-47 -10 -100 -10q-115 0 -183.5 38.5t-104.5 95t-48 118t-14 106.5q-10 203 -11 388zM264 726q2 -153 8 -323q2 -47 9.5 -94t28 -84t56 -59.5t95.5 -22.5q57 0 94 22.5t57.5 59.5t27.5 84t9 94q6 170 8 323v51q0 130 -8 270q-2 47 -10 93t-27.5 81.5 t-56.5 58.5t-94 23q-59 0 -95 -23t-55.5 -58.5t-28 -81.5t-10.5 -93q-8 -140 -8 -270v-51z" />
<glyph unicode="R" horiz-adv-x="940" d="M147 47v1352q0 20 15.5 33.5t32.5 13.5h247q121 0 204 -20.5t130 -92.5q35 -51 50.5 -117.5t15.5 -160.5q0 -147 -41 -225t-144 -119l205 -664q1 -4 1 -9q0 -8 -5 -20q-8 -18 -35 -18h-82q-20 0 -32.5 9t-20.5 38l-194 633l-183 -2v-631q0 -16 -12 -31.5t-35 -15.5h-69 q-20 0 -34 15.5t-14 31.5zM311 842h135q59 0 97.5 5t66.5 27q20 14 32.5 30t21 35t11.5 47t3 69q0 86 -18.5 132t-51.5 68q-16 10 -32.5 15.5t-47 7.5t-82 2h-135.5v-438z" />
<glyph unicode="S" horiz-adv-x="854" d="M61 422v20q0 20 12.5 33.5t35.5 13.5h71q20 0 32.5 -13t12.5 -34v-22q0 -82 16.5 -135.5t44 -85t63.5 -44t77 -12.5q90 0 146.5 54.5t56.5 189.5q0 76 -40 131t-101.5 102.5t-131 93.5t-131 103t-101.5 132t-40 179q0 66 21.5 127.5t63.5 108.5t105.5 74.5t147.5 27.5 t146.5 -27.5t104.5 -73.5t63.5 -105.5t21.5 -120.5v-15q0 -20 -13.5 -33.5t-35.5 -13.5h-68q-20 0 -33.5 15.5t-13.5 31.5v4q0 76 -46 125.5t-124 49.5q-49 0 -82 -14.5t-54.5 -39t-30.5 -56.5t-9 -65q0 -74 40 -128t101.5 -103t131 -96t131 -103.5t101.5 -128.5t40 -170 q0 -211 -96.5 -315t-270.5 -104q-109 0 -178.5 36.5t-111.5 98t-58.5 141.5t-16.5 166z" />
<glyph unicode="T" horiz-adv-x="788" d="M31 1329v70q0 23 15 35t32 12h631q18 0 33.5 -12.5t15.5 -34.5v-70q0 -20 -15.5 -33.5t-33.5 -13.5h-232v-1233q0 -18 -12 -33.5t-35 -15.5h-70q-20 0 -33.5 15.5t-13.5 33.5v1233h-235q-16 0 -31.5 13.5t-15.5 33.5z" />
<glyph unicode="U" horiz-adv-x="952" d="M123 305v1094q0 20 12 33.5t35 13.5h70q20 0 33.5 -13.5t13.5 -33.5v-1012q0 -47 7 -90t27.5 -78t57.5 -55.5t98 -20.5t98 20.5t57.5 55.5t27 79t6.5 91v1010q0 20 12 33.5t35 13.5h69q20 0 33.5 -13.5t13.5 -33.5v-1075q0 -45 -10 -104.5t-48 -113t-109.5 -90 t-194.5 -36.5q-113 0 -180.5 36.5t-104.5 88t-48 106.5t-11 94z" />
<glyph unicode="V" horiz-adv-x="851" d="M63 1399q-1 6 -1 11q0 12 8 22q10 14 32 14h80q41 0 49 -47l88 -441l107 -647l106 647l89 441q8 47 49 47h80q23 0 33 -14q7 -9 7 -20q0 -6 -2 -13l-276 -1352q-10 -47 -47 -47h-78q-37 0 -47 47z" />
<glyph unicode="W" horiz-adv-x="1077" d="M84 1397q-2 18 12.5 33.5t34.5 15.5h70q23 0 34 -15.5t13 -33.5l51 -574l20 -506h9l129 598q4 25 14 36.5t33 11.5h69q23 0 33 -11.5t15 -36.5l129 -598h8l20 506l51 574q2 18 13.5 33.5t34.5 15.5h69q20 0 34.5 -15.5t12.5 -33.5l-129 -1350q-2 -18 -14 -32.5t-33 -14.5 h-72q-35 0 -45 47l-127 469l-30 191h-8l-31 -191l-127 -469q-10 -47 -45 -47h-72q-20 0 -32.5 14.5t-14.5 32.5z" />
<glyph unicode="X" horiz-adv-x="825" d="M76 47l248 715l-240 637q-8 20 4 33.5t35 13.5h88q20 0 30.5 -12.5t18.5 -34.5l158 -436l143 436q8 23 18.5 35t30.5 12h88q23 0 35 -13.5t4 -33.5l-239 -637l252 -715q3 -8 3 -15q1 -10 -7 -18q-12 -14 -35 -14h-86q-20 0 -29.5 12.5t-20.5 34.5l-165 492l-164 -492 q-8 -23 -18.5 -35t-30.5 -12h-82q-23 0 -35 14q-7 8 -7 18q0 7 3 15z" />
<glyph unicode="Y" horiz-adv-x="821" d="M55 1399q-3 7 -3 14q0 10 8 19q12 14 34 14h88q20 0 30.5 -12.5t18.5 -34.5l172 -533l183 533q8 23 18 35t31 12h92q23 0 35 -14q7 -9 7 -19q0 -7 -3 -14l-281 -735v-615q0 -18 -12 -33.5t-35 -15.5h-69q-20 0 -33.5 15.5t-13.5 33.5v615z" />
<glyph unicode="Z" horiz-adv-x="786" d="M41 51v99q0 14 10 40.5t19 42.5l465 1049h-433q-18 0 -33.5 13.5t-15.5 33.5v70q0 23 15.5 35t33.5 12h562q20 0 33.5 -15.5t13.5 -31.5v-109q0 -14 -4.5 -24.5t-8.5 -20.5l-479 -1081h477q18 0 33.5 -12.5t15.5 -34.5v-70q0 -20 -15 -33.5t-34 -13.5h-608 q-27 0 -37 17.5t-10 33.5z" />
<glyph unicode="[" horiz-adv-x="589" d="M160 -115v1594q0 18 13 33.5t34 15.5h313q18 0 33.5 -13.5t15.5 -33.5v-70q0 -23 -15 -35t-34 -12h-196v-1364h196q18 0 33.5 -12.5t15.5 -34.5v-70q0 -20 -15 -33.5t-34 -13.5h-313q-20 0 -33.5 15.5t-13.5 33.5z" />
<glyph unicode="\" horiz-adv-x="638" d="M74 1399q-6 20 2 33.5t28 13.5h70q25 0 41 -13.5t23 -33.5l344 -1352q6 -20 -2.5 -33.5t-28.5 -13.5h-70q-25 0 -42 13.5t-21 33.5z" />
<glyph unicode="]" horiz-adv-x="589" d="M20 -47q0 23 15.5 35t34.5 12h196v1364h-196q-18 0 -34 12.5t-16 34.5v70q0 20 15.5 33.5t34.5 13.5h313q20 0 33.5 -15.5t13.5 -33.5v-1594q0 -18 -13.5 -33.5t-33.5 -15.5h-313q-18 0 -34 13.5t-16 33.5v70z" />
<glyph unicode="^" horiz-adv-x="966" d="M113 1162q0 24 16 40l291 305q16 18 27.5 29.5t31.5 11.5h31q20 0 31.5 -11t27.5 -30l269 -305q35 -37 -4 -63l-37 -23q-14 -10 -36 -7t-46 24l-232 170l-231 -170q-25 -20 -48.5 -25.5t-37.5 2.5l-33 18q-20 10 -20 34z" />
<glyph unicode="_" horiz-adv-x="989" d="M-57 -139q0 20 15 33.5t32 13.5h1007q18 0 34 -13.5t16 -33.5v-70q0 -23 -15.5 -35t-34.5 -12h-1007q-16 0 -31.5 12.5t-15.5 34.5v70z" />
<glyph unicode="`" horiz-adv-x="583" d="M76 1393q0 39 21.5 62.5t52.5 23.5q41 0 64.5 -11.5t53.5 -50.5l172 -221q10 -14 11.5 -31.5t-13.5 -27.5l-14 -13q-10 -10 -27.5 -10t-38.5 16l-233 183q-18 14 -33.5 31.5t-15.5 48.5z" />
<glyph unicode="a" horiz-adv-x="909" d="M82 270q0 68 18.5 115t49 80t69.5 56.5t80 43.5l283 146q0 47 -5.5 79.5t-20.5 53t-45 30t-81 9.5q-47 0 -74.5 -10.5t-43 -28t-21.5 -41t-10 -51.5q-6 -39 -41 -37l-86 4q-27 2 -32 21.5t-3 33.5q4 51 24.5 100.5t58.5 88t93 61.5t129 23q168 0 244.5 -77t76.5 -231 v-596h31q18 0 34.5 -14t16.5 -37v-45q0 -20 -16 -33.5t-35 -13.5h-88q-33 0 -49 15.5t-31 50.5q-41 -43 -101.5 -64.5t-127.5 -21.5q-66 0 -121 25.5t-94 66.5t-60.5 93t-21.5 105zM246 266q0 -18 8 -39.5t25.5 -40t44 -31t65.5 -12.5q92 0 142.5 47.5t50.5 112.5v227 l-228 -120q-61 -33 -84.5 -63t-23.5 -81z" />
<glyph unicode="b" horiz-adv-x="888" d="M131 49v1348q0 16 13.5 32.5t33.5 16.5h70q23 0 35 -15.5t12 -33.5v-375q33 10 59.5 17.5t79.5 7.5q37 0 97.5 -11.5t118 -56.5t99.5 -136t42 -251v-176q0 -47 -8.5 -119t-42 -140.5t-100.5 -117.5t-183 -49q-53 0 -97.5 15t-64.5 48q0 -29 -15.5 -41t-31.5 -12h-70 q-23 0 -35 14.5t-12 34.5zM295 358q0 -104 43 -154t106 -50q35 0 68 9t58.5 42t41 92t15.5 162v86q0 70 -6.5 131t-27 107t-58 73t-101.5 27q-78 0 -108.5 -41t-30.5 -105v-379z" />
<glyph unicode="c" horiz-adv-x="843" d="M98 426v166q0 160 42 251t99.5 136t118 56.5t97.5 11.5q33 0 78 -7.5t92 -33t90 -76.5t67 -139q10 -31 7 -51.5t-21 -24.5l-92 -19q-29 -6 -39 11.5t-12 27.5q-6 55 -49.5 101.5t-120.5 46.5q-63 0 -101.5 -27t-59 -73t-26.5 -107.5t-6 -130.5v-76q0 -102 15.5 -163.5 t41 -95.5t60.5 -45t76 -11q68 0 110.5 32.5t61.5 110.5q4 16 14 30.5t31 10.5l98 -19q14 -4 18 -18q3 -10 4 -18q0 -4 -1 -7q-10 -45 -31 -95t-61 -93t-99 -70.5t-145 -27.5q-117 0 -186.5 47t-107.5 115.5t-50.5 143.5t-12.5 130z" />
<glyph unicode="d" horiz-adv-x="888" d="M98 416v176q0 160 42 251t99.5 136t118 56.5t97.5 11.5q53 0 79.5 -7.5t59.5 -17.5v375q0 18 12 33.5t35 15.5h70q20 0 33.5 -16.5t13.5 -32.5v-1348q0 -20 -12.5 -34.5t-34.5 -14.5h-70q-16 0 -31.5 12.5t-15.5 40.5q-20 -33 -64.5 -48t-97.5 -15q-117 0 -183.5 49 t-100 117.5t-42 140.5t-8.5 119zM262 459q0 -102 15.5 -161.5t41 -92.5t58 -42t67.5 -9q63 0 106.5 50t43.5 154v379q0 63 -31 104.5t-108 41.5q-63 0 -101.5 -27t-59 -73t-26.5 -107.5t-6 -130.5v-86z" />
<glyph unicode="e" horiz-adv-x="884" d="M98 426v166q0 225 89 340t255 115t255 -115t89 -318v-67q0 -37 -19 -66.5t-60 -29.5h-445q0 -106 19.5 -166t49 -89.5t62.5 -35.5t60 -6q55 0 99 23.5t73 101.5q9 30 34 30q7 0 15 -2l82 -20q20 -4 25 -20.5t-1 -33.5q-10 -27 -27.5 -67.5t-54 -79.5t-98.5 -67.5 t-158 -28.5q-158 0 -251 113.5t-93 322.5zM264 614h357q0 35 -4.5 81t-21.5 88t-53 71t-100 29q-55 0 -89 -19.5t-52 -55.5t-26.5 -85t-10.5 -109z" />
<glyph unicode="f" horiz-adv-x="733" d="M61 930v59q0 20 15.5 33.5t32.5 13.5h149v135q0 80 14.5 132.5t45 84t77.5 45t113 13.5h127q16 0 31.5 -13.5t15.5 -35.5v-66q0 -23 -15.5 -36t-31.5 -13h-127q-55 0 -70.5 -35t-15.5 -88v-123h186q18 0 33.5 -13t15.5 -34v-59q0 -23 -15 -35t-34 -12h-186v-836 q0 -20 -14.5 -33.5t-32.5 -13.5h-66q-25 0 -38 13.5t-13 33.5v836h-149q-16 0 -32 12t-16 35z" />
<glyph unicode="g" horiz-adv-x="880" d="M98 428v164q0 160 41 251t97.5 136t114 56.5t89.5 11.5q53 0 92 -17.5t62 -46.5q4 53 43 53h76q20 0 32.5 -15t12.5 -32v-1057q0 -78 -24.5 -135t-67.5 -95t-101.5 -56.5t-128.5 -18.5q-88 0 -160.5 35t-115.5 105q-12 20 -13.5 41.5t25.5 35.5l64 33q12 7 22 7 q22 0 41 -27q23 -31 48.5 -49.5t88.5 -18.5q88 0 123 38t35 130v106q-31 -35 -75 -54t-91 -19q-90 0 -152.5 38t-101.5 99t-57.5 140t-18.5 161zM262 469q0 -150 40 -232.5t126 -82.5q43 0 75 19.5t51 48t29.5 64.5t10.5 70v361q0 63 -33 114.5t-121 51.5q-53 0 -87 -24.5 t-54 -70t-28.5 -108t-8.5 -135.5v-76z" />
<glyph unicode="h" horiz-adv-x="897" d="M123 47v1352q0 16 13.5 31.5t33.5 15.5h80q23 0 35 -15.5t12 -31.5v-461q39 51 87 80t126 29q82 0 133 -29t80 -79t40 -119.5t11 -149.5v-623q0 -16 -11 -31.5t-34 -15.5h-78q-20 0 -33.5 15.5t-13.5 31.5v621q0 96 -15.5 155.5t-76.5 59.5q-41 0 -80 -24.5t-68.5 -65.5 t-48 -93.5t-18.5 -109.5v-543q0 -16 -13.5 -31.5t-35.5 -15.5h-78q-20 0 -33.5 15.5t-13.5 31.5z" />
<glyph unicode="i" horiz-adv-x="595" d="M41 932v57q0 20 14.5 33.5t32.5 13.5h277q25 0 38 -13t13 -34v-942q0 -20 -12.5 -33.5t-34.5 -13.5h-70q-20 0 -33.5 13.5t-13.5 33.5v836h-164q-18 0 -32.5 16t-14.5 33zM207 1286q0 45 31.5 77t74.5 32q45 0 77 -32t32 -77q0 -43 -32 -74.5t-77 -31.5q-43 0 -74.5 31.5 t-31.5 74.5z" />
<glyph unicode="j" horiz-adv-x="630" d="M27 -250q0 23 15 36t32 13h127q45 0 67.5 34t22.5 87v963h-154q-18 0 -32.5 16t-14.5 33v57q0 20 14.5 33.5t32.5 13.5h266q25 0 38.5 -13t13.5 -34v-1069q0 -135 -57.5 -208.5t-198.5 -73.5h-125q-16 0 -31.5 13t-15.5 34v65zM242 1286q0 45 31.5 77t74.5 32 q45 0 77 -32t32 -77q0 -43 -32 -74.5t-77 -31.5q-43 0 -74.5 31.5t-31.5 74.5z" />
<glyph unicode="k" horiz-adv-x="825" d="M131 47v1352q0 16 13.5 31.5t33.5 15.5h70q23 0 35 -15.5t12 -31.5v-828l260 430q12 20 22.5 27.5t30.5 7.5h111q23 0 29 -13t-7 -34l-229 -375l268 -567q2 -4 2 -9q0 -8 -5 -20q-9 -18 -36 -18h-84q-20 0 -31.5 10t-21.5 37l-211 434l-98 -176v-258q0 -16 -12.5 -31.5 t-34.5 -15.5h-70q-20 0 -33.5 15.5t-13.5 31.5z" />
<glyph unicode="l" horiz-adv-x="563" d="M51 1329v70q0 23 15.5 35t31.5 12h246q23 0 35 -15.5t12 -31.5v-1350q0 -18 -12 -33.5t-35 -15.5h-70q-20 0 -33.5 15.5t-13.5 33.5v1233h-129q-16 0 -31.5 13.5t-15.5 33.5z" />
<glyph unicode="m" horiz-adv-x="1378" d="M137 47v942q0 16 13.5 31.5t33.5 15.5h70q23 0 35 -15t12 -32v-59q41 55 103.5 86t117.5 31q72 0 124 -23t87 -94q66 72 132.5 94.5t129.5 22.5q76 0 124 -25t76 -70t37 -107.5t9 -137.5v-660q0 -16 -11 -31.5t-34 -15.5h-72q-23 0 -35 16.5t-12 32.5v645q0 37 -2 72 t-11 60.5t-28.5 41t-52.5 15.5q-35 0 -73 -19.5t-68.5 -56.5t-51 -89t-20.5 -116v-555q0 -16 -11 -31.5t-34 -15.5h-74q-23 0 -35 16.5t-12 32.5v645q0 37 -2 72t-11 60.5t-28.5 41t-52.5 15.5q-35 0 -73 -19.5t-68.5 -56.5t-51 -89t-20.5 -116v-555q0 -16 -11.5 -31.5 t-31.5 -15.5h-70q-20 0 -33.5 15.5t-13.5 31.5z" />
<glyph unicode="n" horiz-adv-x="897" d="M131 47v942q0 16 13.5 31.5t33.5 15.5h70q23 0 35 -15t12 -32v-59q41 55 103.5 86t117.5 31q96 0 147.5 -33t74 -92.5t24.5 -143.5t2 -184v-547q0 -16 -11.5 -31.5t-33.5 -15.5h-74q-23 0 -35 16.5t-12 32.5v645q0 37 -1 72t-8 60.5t-24.5 41t-50.5 15.5 q-31 0 -68.5 -19.5t-72.5 -56.5t-58.5 -89t-23.5 -116v-555q0 -16 -11.5 -31.5t-31.5 -15.5h-70q-20 0 -33.5 15.5t-13.5 31.5z" />
<glyph unicode="o" horiz-adv-x="905" d="M98 426v166q0 106 20.5 182t52.5 126t71 80t78.5 44t74.5 18.5t58 4.5t57.5 -4.5t74.5 -18.5t78.5 -44t70.5 -80t52.5 -126t20.5 -182v-166q0 -55 -12.5 -130t-49 -143.5t-106 -115.5t-186.5 -47t-186.5 47t-106.5 115.5t-49.5 143.5t-12.5 130zM262 469 q0 -102 15.5 -163.5t41 -95.5t60.5 -45t74 -11t73.5 11t60 45t41 95.5t15.5 163.5v76q0 70 -6 131t-26.5 107t-57.5 73t-100 27t-101.5 -27t-58 -73t-25.5 -107.5t-6 -130.5v-76z" />
<glyph unicode="p" horiz-adv-x="888" d="M131 -315v1304q0 16 12.5 31.5t32.5 15.5h74q39 0 45 -53q33 43 79 53.5t75 10.5q86 0 150.5 -34t106.5 -92.5t63.5 -137t21.5 -169.5v-170q0 -156 -41 -247t-96.5 -137t-112 -58t-86.5 -12q-55 0 -90 8t-70 25v-338q0 -16 -12.5 -31.5t-34.5 -15.5h-70q-20 0 -33.5 15 t-13.5 32zM295 311q0 -76 38 -116.5t116 -40.5q33 0 64.5 11t57 45t41 95.5t15.5 163.5v76q0 70 -7.5 131t-27 107t-56.5 73t-94 27q-86 0 -116.5 -54.5t-30.5 -152.5v-365z" />
<glyph unicode="q" horiz-adv-x="888" d="M98 444v170q0 90 21.5 169t63.5 137.5t106.5 92.5t150.5 34q29 0 75 -10.5t79 -53.5q6 53 45 53h74q20 0 32.5 -15t12.5 -32v-1304q0 -16 -13.5 -31.5t-33.5 -15.5h-70q-23 0 -35 15t-12 32v338q-35 -16 -70 -24.5t-90 -8.5q-31 0 -87 12t-111.5 58t-96.5 137.5 t-41 246.5zM262 469q0 -102 15.5 -163.5t41 -95.5t57.5 -45t64 -11q78 0 116 41t38 116v365q0 98 -31 152.5t-117 54.5q-59 0 -95 -27t-55.5 -73t-26.5 -107.5t-7 -130.5v-76z" />
<glyph unicode="r" horiz-adv-x="751" d="M131 49v938q0 18 13.5 33.5t35.5 15.5h68q20 0 33.5 -15t13.5 -34v-82q66 61 117 101.5t114 40.5t100.5 -15.5t55.5 -47.5t23.5 -83t5.5 -123q0 -18 -9.5 -36.5t-37.5 -18.5h-58q-23 0 -35 16.5t-12 38.5v35q0 37 -9 56.5t-38 19.5q-16 0 -36.5 -13.5t-43 -34t-45 -44 t-41.5 -43.5q-29 -35 -40 -78t-11 -107v-520q0 -18 -12.5 -33.5t-34.5 -15.5h-70q-20 0 -33.5 15.5t-13.5 33.5z" />
<glyph unicode="s" horiz-adv-x="854" d="M102 322v16q0 20 12.5 33.5t35.5 13.5h69q20 0 33.5 -13.5t13.5 -33.5v-16q0 -49 14.5 -82t38 -51.5t51 -26.5t56.5 -8q92 0 127 45t35 110q0 53 -34 86t-84 57.5t-109.5 47t-109.5 55.5t-84 84t-34 133q0 86 32 140.5t77 84t94 40t86 10.5q53 0 105.5 -14.5t93.5 -46.5 t66.5 -82t25.5 -122v-18q0 -20 -12.5 -33.5t-34.5 -13.5h-68q-20 0 -35.5 15.5t-15.5 31.5v14q0 53 -33 79t-92 26q-49 0 -87 -23.5t-38 -85.5q0 -49 34 -78.5t84 -52t109.5 -44t109.5 -55.5t84 -86t34 -136q0 -43 -13.5 -99.5t-49.5 -109t-99.5 -88t-163.5 -35.5 q-61 0 -119.5 19.5t-103.5 59.5t-73 103.5t-28 149.5z" />
<glyph unicode="t" horiz-adv-x="722" d="M61 930v59q0 23 15.5 35t32.5 12h149v363q0 20 13.5 33.5t37.5 13.5h66q18 0 32.5 -13.5t14.5 -33.5v-363h164q18 0 33.5 -12t15.5 -35v-59q0 -20 -15.5 -33.5t-33.5 -13.5h-164v-561q0 -51 3 -82t12 -48.5t24.5 -22.5t38.5 -5h94q20 0 33.5 -14.5t13.5 -36.5v-66 q0 -20 -13.5 -33.5t-33.5 -13.5h-107q-47 0 -89 11.5t-72.5 39t-49 75.5t-18.5 124v633h-149q-16 0 -32 13t-16 34z" />
<glyph unicode="u" horiz-adv-x="894" d="M131 342v645q0 20 11.5 34.5t33.5 14.5h74q20 0 33.5 -16t13.5 -33v-637q0 -43 1 -78.5t10 -62.5t27.5 -41t53.5 -14q31 0 68 20.5t69.5 57t55 88t22.5 114.5v555q0 16 10.5 31.5t32.5 15.5h70q20 0 33.5 -15t13.5 -32v-942q0 -16 -13.5 -31.5t-33.5 -15.5h-70 q-23 0 -35 15.5t-12 31.5v59q-41 -55 -101.5 -85.5t-138.5 -30.5q-131 0 -180 84t-49 268z" />
<glyph unicode="v" horiz-adv-x="811" d="M43 989q-1 6 -1 11q0 12 7 22q10 14 33 14h84q41 0 49 -47l191 -717l192 717q8 47 49 47h82q23 0 33 -13q7 -9 7 -23q0 -5 -1 -11l-276 -942q-10 -47 -48 -47h-77q-37 0 -48 47z" />
<glyph unicode="w" horiz-adv-x="980" d="M63 987q-2 18 12.5 33.5t35.5 15.5h69q41 0 47 -49l86 -657l95 334q10 29 18 38t29 9h69q23 0 31 -12.5t16 -34.5l99 -334l84 657q4 20 15 34.5t32 14.5h69q23 0 36.5 -15t11.5 -34l-146 -940q0 -16 -12 -31.5t-35 -15.5h-57q-20 0 -30.5 12.5t-16.5 32.5l-136 414 l-141 -412q-6 -23 -15.5 -35t-31.5 -12h-57q-20 0 -32.5 15.5t-14.5 31.5z" />
<glyph unicode="x" horiz-adv-x="866" d="M68 14q-5 7 -6 15q0 8 6 18l280 500l-235 442q-10 18 0 32.5t30 14.5h95q25 0 38 -14t23 -33l147 -276l144 276q10 18 24.5 32.5t38.5 14.5h95q20 0 30 -14t0 -33l-243 -442l264 -500q5 -9 5 -17t-6 -16q-10 -14 -30 -14h-92q-25 0 -39 14.5t-25 32.5l-176 340l-180 -340 q-10 -18 -24.5 -32.5t-38.5 -14.5h-95q-20 0 -30 14z" />
<glyph unicode="y" horiz-adv-x="835" d="M51 989q-2 7 -2 13q0 12 7 20q12 14 34 14h100q37 0 50 -47l198 -686l172 686q4 18 16.5 32.5t30.5 14.5h91q37 0 37 -30q0 -8 -3 -19l-319 -1247q-10 -39 -43 -70.5t-98 -31.5h-154q-18 0 -33.5 13t-15.5 34v69q0 23 15.5 35t33.5 12h86q70 0 84 72l27 139z" />
<glyph unicode="z" horiz-adv-x="825" d="M82 922v67q0 23 15.5 35t33.5 12h526q20 0 34 -15t14 -32v-108q0 -27 -13 -45l-413 -672h415q18 0 33.5 -12.5t15.5 -34.5v-70q0 -20 -15 -33.5t-34 -13.5h-555q-27 0 -37 17.5t-10 33.5v80q0 14 9.5 41t19.5 43l401 659h-391q-18 0 -33.5 13.5t-15.5 34.5z" />
<glyph unicode="{" horiz-adv-x="665" d="M14 647v78q0 12 9.5 26.5t25.5 18.5q35 8 62.5 22.5t47 43t30 77t10.5 125.5v107q0 74 9 153.5t62 141.5q31 35 65 54t72.5 28.5t78.5 11.5t83 2q18 0 33.5 -12.5t15.5 -34.5v-72q0 -20 -15 -33.5t-34 -13.5q-78 0 -119.5 -13.5t-61 -48t-24 -96t-4.5 -157.5 q0 -86 -5 -144.5t-19 -98.5t-41 -67.5t-72 -48.5q-14 -8 -14 -10q0 -4 14 -10q45 -23 72 -49.5t41 -66.5t19 -98.5t5 -144.5q0 -96 4.5 -157.5t24 -96t61.5 -48t119 -13.5q18 0 33.5 -13.5t15.5 -33.5v-72q0 -23 -15 -35t-34 -12q-43 0 -83 2t-78.5 11.5t-72.5 29t-65 53.5 q-53 61 -62 141.5t-9 153.5v107q0 78 -10.5 126t-30 76.5t-47 42t-62.5 23.5q-16 4 -25.5 18.5t-9.5 26.5z" />
<glyph unicode="|" horiz-adv-x="532" d="M184 -180v1747q0 16 13.5 31.5t33.5 15.5h70q23 0 35 -15.5t12 -31.5v-1747q0 -18 -12 -33.5t-35 -15.5h-70q-20 0 -33.5 15t-13.5 34z" />
<glyph unicode="}" horiz-adv-x="665" d="M14 -45q0 20 15.5 33.5t33.5 13.5q76 0 119 13.5t62.5 48t23.5 96t4 157.5q0 86 5.5 144.5t19.5 98.5t41 66.5t72 49.5q14 6 14 10q0 2 -14 10q-45 20 -72 48t-41 68t-19.5 98.5t-5.5 144.5q0 96 -4 157.5t-23.5 96t-62.5 48t-119 13.5q-18 0 -33.5 13.5t-15.5 33.5v72 q0 23 15.5 35t33.5 12q43 0 83 -2t79 -11.5t73 -28.5t64 -54q53 -61 62.5 -141t9.5 -154v-107q0 -78 10.5 -126t30 -76.5t47 -43t62.5 -22.5q16 -4 25 -18.5t9 -26.5v-78q0 -12 -9 -26.5t-25 -18.5q-35 -10 -62.5 -23.5t-47 -42t-30 -76.5t-10.5 -126v-107q0 -74 -9 -153.5 t-63 -141.5q-31 -35 -64.5 -54t-72.5 -28.5t-79 -11.5t-83 -2q-18 0 -33.5 12.5t-15.5 34.5v72z" />
<glyph unicode="~" horiz-adv-x="1214" d="M124 462.5q1 26.5 13 41.5q16 20 43 45.5t61.5 48.5t76.5 38t90 15q53 0 99 -15t107 -44q72 -35 113 -50.5t76 -15.5q57 0 89.5 31t59.5 78q10 16 32 22.5t42 -6.5l43 -24q20 -14 22.5 -39t-24.5 -72q-37 -66 -108.5 -117t-159.5 -51q-37 0 -76 12.5t-107 47.5 q-39 18 -67.5 31.5t-52 22.5t-44 13t-40.5 4q-27 0 -45.5 -5t-35 -17.5t-33.5 -29.5l-42 -42q-10 -10 -27.5 -12t-33.5 8l-56 41q-16 14 -15 40.5z" />
<glyph unicode="&#xa1;" horiz-adv-x="772" d="M246 905q0 57 41 98t100 41q57 0 98 -41t41 -98q0 -59 -41 -100t-98 -41q-59 0 -100 41t-41 100zM270 -375l41 965q0 18 12.5 33.5t34.5 15.5h68q20 0 33.5 -15.5t13.5 -33.5l41 -965q0 -16 -13.5 -31.5t-33.5 -15.5h-150q-23 0 -35 15.5t-12 31.5z" />
<glyph unicode="&#xa2;" horiz-adv-x="831" d="M98 518q0 92 8.5 179t37 158t84 120t151.5 65v119q0 16 13.5 31.5t33.5 15.5h70q23 0 35 -15t12 -32v-119q82 -14 128 -53t68.5 -83t28.5 -84t6 -58v-25q0 -18 -12 -33.5t-35 -15.5h-72q-20 0 -33.5 13.5t-13.5 35.5q0 16 -6 41t-22.5 47.5t-45 39t-71.5 16.5 q-117 0 -157 -96.5t-40 -264.5q0 -193 40 -283t157 -90q49 0 78.5 19.5t45 49.5t20.5 66.5t5 71.5v15q0 16 12.5 31.5t32.5 15.5h76q23 0 35 -15.5t12 -31.5v-45q0 -29 -5 -79t-27.5 -102.5t-70.5 -96.5t-134 -58v-119q0 -18 -12.5 -33.5t-34.5 -15.5h-70q-20 0 -33.5 15 t-13.5 34v119q-88 12 -143.5 54t-86 109.5t-41 159.5t-10.5 207z" />
<glyph unicode="&#xa3;" horiz-adv-x="1009" d="M147 47v70q0 23 10.5 32t26.5 13q43 12 69 43t41 68.5t22.5 79.5t9.5 75l14 234h-98q-16 0 -31.5 12t-15.5 33v69q0 23 14 36t31 13h110l17 287q4 82 19 147.5t48 111.5t84 70.5t127 24.5q39 0 76 -5t68.5 -22.5t59.5 -51.5t48 -91q8 -23 0 -41t-33 -24l-59 -17 q-49 -16 -64 29q-12 45 -34.5 52.5t-61.5 7.5t-60.5 -14.5t-31.5 -40t-13 -60.5t-5 -76l-21 -285h178q18 0 34.5 -12t16.5 -35v-71q0 -20 -15 -33.5t-34 -13.5h-190l-19 -269q-4 -57 -14 -112.5t-33 -90.5q78 0 136.5 -5t108.5 -10t99 -9t107 -2q49 0 49 -47v-70 q0 -47 -49 -47q-109 0 -192 9t-161.5 15.5t-159.5 3.5t-181 -28q-16 -4 -32 11.5t-16 35.5z" />
<glyph unicode="&#xa5;" horiz-adv-x="858" d="M53 1399q-8 18 4.5 32.5t34.5 14.5h88q20 0 30.5 -12.5t18.5 -34.5l172 -533l183 533q8 23 18 35t31 12h92q23 0 35 -14.5t4 -32.5l-193 -502h144q16 0 31.5 -13.5t15.5 -33.5v-64q0 -23 -15.5 -35t-31.5 -12h-203l-29 -75v-50h232q16 0 31.5 -13t15.5 -34v-63 q0 -23 -15.5 -35t-31.5 -12h-232v-408q0 -18 -12 -33.5t-35 -15.5h-69q-20 0 -34 15.5t-14 33.5v408h-213q-18 0 -33.5 12t-15.5 35v63q0 20 15.5 33.5t33.5 13.5h213v50l-28 75h-185q-18 0 -33.5 12.5t-15.5 34.5v64q0 20 15.5 33.5t33.5 13.5h127z" />
<glyph unicode="&#xa6;" horiz-adv-x="532" d="M184 -180v715q0 20 13.5 35.5t33.5 15.5h70q23 0 35 -16.5t12 -32.5v-717q0 -16 -12 -32.5t-35 -16.5h-70q-20 0 -33.5 15t-13.5 34zM184 846v717q0 20 13.5 35.5t33.5 15.5h70q23 0 35 -16.5t12 -32.5v-719q0 -16 -12 -32.5t-35 -16.5h-70q-20 0 -33.5 15t-13.5 34z" />
<glyph unicode="&#xa7;" horiz-adv-x="1007" d="M68 772q0 104 61 185t166 110q-35 41 -56.5 89t-21.5 120q0 63 21.5 118.5t61.5 96.5t99 65.5t133 24.5q78 0 136.5 -25.5t96.5 -68.5t56.5 -100.5t18.5 -122.5q0 -18 -12.5 -31.5t-32.5 -13.5h-76q-18 0 -30.5 14t-12.5 31q0 16 -4 41.5t-18.5 50t-42 43t-76.5 18.5 q-66 0 -110 -37t-44 -104q0 -29 9 -51.5t27.5 -45t47.5 -49t67 -63.5l271 -264q82 -80 109.5 -151.5t27.5 -127.5q0 -141 -53 -217t-148 -110q35 -43 56.5 -95.5t21.5 -105.5q0 -70 -18.5 -132.5t-55 -108.5t-93 -73.5t-132.5 -27.5q-66 0 -121 20.5t-97 63.5t-65.5 107.5 t-23.5 152.5q0 18 12.5 30.5t32.5 12.5h76q18 0 30.5 -12.5t12.5 -30.5q0 -180 143 -180q45 0 71.5 18.5t41 46t18.5 58t4 57.5q0 76 -127 197l-319 303q-66 63 -102.5 129.5t-36.5 144.5zM236 770q0 -43 33.5 -89t89 -99.5t126 -116t144.5 -135.5q49 10 77.5 31.5t44 48 t20.5 56.5t5 58q0 39 -20.5 76t-69.5 86l-184 182q-37 35 -62.5 41t-56.5 6q-20 0 -46 -8t-48.5 -25.5t-37.5 -45t-15 -66.5z" />
<glyph unicode="&#xa8;" horiz-adv-x="753" d="M82 1245q0 45 31.5 77t74.5 32q45 0 77 -32t32 -77q0 -43 -32 -74.5t-77 -31.5q-43 0 -74.5 31.5t-31.5 74.5zM457 1245q0 45 31.5 77t74.5 32q45 0 77 -32t32 -77q0 -43 -32 -74.5t-77 -31.5q-43 0 -74.5 31.5t-31.5 74.5z" />
<glyph unicode="&#xa9;" horiz-adv-x="1652" d="M86 721q0 162 55.5 298t154.5 235.5t235.5 154.5t295.5 55q160 0 295 -56t234.5 -155.5t155 -235.5t55.5 -296q0 -162 -55.5 -298t-153.5 -234.5t-233.5 -153.5t-297.5 -55q-164 0 -300 55t-234 153.5t-152.5 234.5t-54.5 298zM256 721q0 -127 41 -235.5t115.5 -187.5 t180 -124t234.5 -45q127 0 232.5 45t180.5 125t116 187.5t41 234.5t-41 235.5t-116 188.5t-179.5 125t-233.5 45t-234.5 -45t-180 -125t-115.5 -188.5t-41 -235.5zM555 770q0 68 7 137.5t35 128t85 95t156 36.5q96 0 145 -35.5t72 -95.5q10 -23 1 -46t-36 -36l-29 -14 q-23 -12 -48 -3t-36 32q-10 23 -28.5 31t-47.5 8q-39 0 -61 -17.5t-34.5 -49.5t-16.5 -76t-4 -95q0 -72 4 -129t16.5 -98t37 -63.5t65.5 -22.5t59 10t33 39q10 18 26.5 22t32.5 -6l41 -26q49 -33 25 -84q-8 -18 -21.5 -39t-38 -38.5t-63.5 -28.5t-101 -11q-98 0 -154 47 t-83 117.5t-33 153.5t-6 157z" />
<glyph unicode="&#xaa;" horiz-adv-x="577" d="M47 971q0 43 11.5 73.5t31 53t44 39t50.5 32.5q20 12 38 21.5t35 20t39.5 20.5t53.5 26q-2 35 -16.5 54.5t-59.5 19.5t-60 -17.5t-19 -45.5q-4 -43 -48 -39l-49 4q-25 2 -30 19.5t-2 31.5q2 35 15 67.5t38.5 59.5t63.5 42t87 15q113 0 160 -52t49 -154v-357q45 -4 45 -49 v-22q0 -23 -14 -36.5t-35 -13.5h-37q-49 0 -63 29q-29 -23 -59.5 -30t-71.5 -7q-45 0 -82 16.5t-62.5 44t-39 62.5t-13.5 72zM180 969q0 -16 16.5 -38t55.5 -22q31 0 50.5 11.5t30.5 27t14 32.5t3 32v96q-35 -20 -70.5 -35.5t-70.5 -40.5q-14 -10 -21.5 -22.5t-7.5 -40.5z " />
<glyph unicode="&#xab;" horiz-adv-x="811" d="M41 537v24q0 16 9 28.5t24 28.5l239 261q25 29 49 4l25 -25q25 -25 -2 -70l-158 -247l162 -256q12 -18 11 -40t-11 -32l-22 -20q-12 -12 -30 -8.5t-30 20.5l-233 274q-14 16 -23.5 28.5t-9.5 29.5zM373 537v24q0 16 9 28.5t24 28.5l239 261q25 29 49 4l25 -25 q25 -25 -2 -70l-158 -247l162 -256q12 -18 11 -40t-11 -32l-23 -20q-12 -12 -29.5 -8.5t-29.5 20.5l-233 274q-14 16 -23.5 28.5t-9.5 29.5z" />
<glyph unicode="&#xac;" horiz-adv-x="927" d="M102 467v70q0 20 15.5 33.5t32.5 13.5h626q18 0 33.5 -13.5t15.5 -33.5v-273q0 -16 -12 -31.5t-35 -15.5h-69q-20 0 -33.5 15.5t-13.5 31.5v156h-512q-16 0 -32 12t-16 35z" />
<glyph unicode="&#xad;" horiz-adv-x="774" d="M123 467v70q0 20 15.5 33.5t31.5 13.5h432q18 0 33.5 -13.5t15.5 -33.5v-70q0 -23 -15 -35t-34 -12h-432q-16 0 -31.5 12t-15.5 35z" />
<glyph unicode="&#xae;" horiz-adv-x="1652" d="M86 721q0 162 55.5 298t154.5 235.5t235.5 154.5t295.5 55q160 0 295 -56t234.5 -155.5t155 -235.5t55.5 -296q0 -162 -55.5 -298t-153.5 -234.5t-233.5 -153.5t-297.5 -55q-164 0 -300 55t-234 153.5t-152.5 234.5t-54.5 298zM256 721q0 -127 41 -235.5t115.5 -187.5 t180 -124t234.5 -45q127 0 232.5 45t180.5 125t116 187.5t41 234.5t-41 235.5t-116 188.5t-179.5 125t-233.5 45t-234.5 -45t-180 -125t-115.5 -188.5t-41 -235.5zM614 354v736q0 27 20.5 45t39.5 18h139q76 0 131 -14.5t86 -65.5q41 -66 41 -174v-37q-2 -78 -23.5 -123 t-70.5 -73l108 -312q20 -57 -34 -57h-72q-25 0 -39 13.5t-25 43.5l-98 283q-10 -2 -41 -2v-281q0 -23 -10 -40t-35 -17h-72q-25 0 -35 17.5t-10 39.5zM776 797h39q55 0 70 12q10 10 15 19.5t7 33.5v37q0 72 -20 80q-10 6 -36 7t-75 1v-190z" />
<glyph unicode="&#xaf;" horiz-adv-x="780" d="M143 1208v56q0 20 15.5 33.5t31.5 13.5h398q18 0 33.5 -13.5t15.5 -33.5v-56q0 -23 -15.5 -35t-33.5 -12h-398q-16 0 -31.5 12.5t-15.5 34.5z" />
<glyph unicode="&#xb0;" horiz-adv-x="751" d="M92 1165v31q0 57 22.5 109.5t61.5 91.5t90 61.5t111 22.5q57 0 109.5 -22.5t90 -61.5t60 -91.5t22.5 -109.5v-31q0 -59 -22.5 -110t-60 -90t-90 -61.5t-109.5 -22.5q-59 0 -110.5 22.5t-90.5 61.5t-61.5 90t-22.5 110zM248 1165q0 -55 37 -92t92 -37q53 0 91 37t38 92v31 q0 55 -38 92t-91 37q-55 0 -92 -37t-37 -92v-31z" />
<glyph unicode="&#xb1;" horiz-adv-x="1062" d="M123 745v70q0 20 15.5 33.5t31.5 13.5h272v293q0 16 12.5 31.5t34.5 15.5h70q20 0 33.5 -15.5t13.5 -31.5v-293h285q18 0 33.5 -13t15.5 -34v-70q0 -23 -15.5 -35t-33.5 -12h-285v-305q0 -18 -12 -33.5t-33 -15.5h-69q-23 0 -36.5 15.5t-13.5 33.5v305h-272 q-16 0 -31.5 12.5t-15.5 34.5zM160 45v78q0 20 15 33.5t32 13.5h655q18 0 33.5 -13.5t15.5 -33.5v-78q0 -23 -15 -35t-34 -12h-655q-16 0 -31.5 12.5t-15.5 34.5z" />
<glyph unicode="&#xb2;" horiz-adv-x="575" d="M102 1260v18q0 78 46.5 130t138.5 52t136 -56t44 -134q0 -53 -37 -114.5t-98 -133.5q-41 -47 -63.5 -78t-24.5 -70h182q20 0 33.5 -14t13.5 -35v-39q0 -16 -13.5 -31.5t-33.5 -15.5h-274q-16 0 -32 15.5t-16 31.5v72q0 37 13.5 74t33 69.5t42 60.5t43.5 48q41 41 68.5 85 t27.5 75q0 23 -8.5 40t-36.5 17q-23 0 -38.5 -14.5t-15.5 -42.5v-10q0 -18 -15 -30.5t-36 -12.5h-32q-16 0 -32 12t-16 31z" />
<glyph unicode="&#xb3;" horiz-adv-x="585" d="M102 918v12q0 16 10.5 32.5t32.5 16.5h43q16 0 30.5 -16.5t14.5 -32.5v-12q0 -18 7.5 -37t42.5 -19t50 19.5t19 40.5q2 14 2 40.5t-2 36.5q-6 35 -15 46.5t-38 11.5h-12q-20 0 -35.5 12t-15.5 37v33q0 20 15.5 32.5t35.5 12.5q35 0 50 13t15 71q0 27 -11 42t-46 15 q-57 0 -57 -35v-12q0 -16 -14.5 -32.5t-30.5 -16.5h-41q-23 0 -34.5 16.5t-11.5 32.5v10q0 72 46.5 120t142.5 48t139 -56.5t43 -131.5q0 -33 -10 -72t-49 -70q23 -16 44 -51t21 -98q0 -119 -45 -182.5t-155 -63.5q-92 0 -136.5 55.5t-44.5 131.5z" />
<glyph unicode="&#xb4;" horiz-adv-x="655" d="M140.5 1164.5q0.5 17.5 11.5 31.5l172 221q31 39 54 50.5t64 11.5q31 0 52.5 -23.5t21.5 -62.5q0 -31 -15.5 -48.5t-33.5 -31.5l-234 -183q-20 -16 -37.5 -16t-27.5 10l-14 13q-14 10 -13.5 27.5z" />
<glyph unicode="&#xb5;" d="M172 -313v1144q0 16 11.5 28.5t33.5 12.5h72q20 0 33.5 -16t13.5 -33v-526q0 -29 3 -55.5t12 -49t25.5 -36t43.5 -13.5q35 0 72.5 25t69.5 66.5t52.5 98t20.5 122.5v376q0 16 11 28.5t34 12.5h72q20 0 33.5 -15t13.5 -32v-778q0 -16 -13.5 -31.5t-33.5 -15.5h-70 q-23 0 -35 15.5t-12 31.5v47q-45 -59 -97.5 -86.5t-134.5 -27.5q-18 0 -34.5 2t-32.5 6v-301q0 -18 -12.5 -33.5t-34.5 -15.5h-70q-20 0 -33.5 15t-13.5 34z" />
<glyph unicode="&#xb6;" horiz-adv-x="1099" d="M102 1055q0 186 86 288.5t269 102.5h501q31 0 45.5 -16.5t14.5 -38.5v-56q0 -23 -14.5 -38t-45.5 -15h-96v-1223q0 -31 -16.5 -45t-38.5 -14h-53q-23 0 -38.5 14.5t-15.5 44.5v1223h-151v-1223q0 -31 -16.5 -45t-38.5 -14h-56q-23 0 -38 14.5t-15 44.5v656 q-57 2 -108.5 22.5t-90.5 62.5t-61.5 105.5t-22.5 149.5z" />
<glyph unicode="&#xb7;" horiz-adv-x="690" d="M205 545q0 59 41 100t98 41q59 0 100 -41t41 -100q0 -57 -41 -98t-100 -41q-57 0 -98 41t-41 98z" />
<glyph unicode="&#xb8;" horiz-adv-x="483" d="M125 -188l61 198h154l-66 -198q-16 -49 -61 -50h-51q-16 0 -29.5 13.5t-7.5 36.5z" />
<glyph unicode="&#xb9;" horiz-adv-x="509" d="M94 1297.5q4 15.5 17 27.5l125 107q10 10 20 12t23 2h53q23 0 34 -15.5t11 -31.5v-608q0 -20 -11.5 -36t-33.5 -16h-43q-20 0 -32.5 15.5t-12.5 36.5v485l-43 -39q-16 -14 -35 -17t-31 13l-33 35q-12 14 -8 29.5z" />
<glyph unicode="&#xba;" horiz-adv-x="571" d="M47 1128q0 82 10.5 144.5t37 105.5t72.5 64.5t118 21.5q80 0 127 -27.5t71.5 -74.5t32.5 -107.5t8 -126.5q0 -76 -8 -140t-33.5 -112.5t-73 -76t-124.5 -27.5q-78 0 -125 27.5t-72 76t-33 113t-8 139.5zM182 1126q0 -94 20.5 -155.5t82.5 -61.5q61 0 81.5 61.5 t20.5 159.5q0 111 -22.5 154t-79.5 43q-59 0 -81 -45t-22 -156z" />
<glyph unicode="&#xbb;" horiz-adv-x="806" d="M79 244.5q-1 21.5 11 40.5l162 256l-158 247q-27 45 -2 70l25 25q25 25 49 -4l240 -261q14 -16 23 -28t9 -29v-24q0 -16 -9 -28.5t-23 -29.5l-234 -274q-12 -16 -29.5 -20.5t-29.5 8.5l-23 20q-10 10 -11 31.5zM407 244.5q-1 21.5 11 40.5l162 256l-158 247q-27 45 -2 70 l24 25q25 25 50 -4l239 -261q14 -16 23.5 -28t9.5 -29v-24q0 -16 -9 -28.5t-24 -29.5l-233 -274q-12 -16 -29.5 -20.5t-30.5 8.5l-22 20q-10 10 -11 31.5z" />
<glyph unicode="&#xbc;" horiz-adv-x="1271" d="M84 1297.5q4 15.5 16 27.5l125 107q10 10 20.5 12t22.5 2h54q23 0 34 -15.5t11 -31.5v-608q0 -20 -11.5 -36t-33.5 -16h-43q-20 0 -33 15.5t-13 36.5v485l-43 -39q-16 -14 -34.5 -17t-30.5 13l-33 35q-12 14 -8 29.5zM186 47l676 1352q10 18 24.5 32.5t39.5 14.5h69 q20 0 28.5 -13.5t2.5 -33.5l-676 -1352q-10 -18 -24.5 -32.5t-38.5 -14.5h-70q-20 0 -30.5 14.5t-0.5 32.5zM698 158v45q0 12 7 28l213 467q4 10 15 23.5t28 13.5h55q35 0 39 -21.5t-4 -37.5l-199 -430h113v100q0 16 9 27.5t30 11.5h55q20 0 29.5 -11.5t9.5 -27.5v-100h53 q39 0 39 -47v-47q0 -41 -39 -41h-53v-70q0 -14 -8.5 -27.5t-30.5 -13.5h-55q-20 0 -29.5 13.5t-9.5 27.5v70h-215q-18 0 -35 11t-17 36z" />
<glyph unicode="&#xbd;" horiz-adv-x="1232" d="M84 1297.5q4 15.5 16 27.5l125 107q10 10 20.5 12t22.5 2h54q23 0 34 -15.5t11 -31.5v-608q0 -20 -11.5 -36t-33.5 -16h-43q-20 0 -33 15.5t-13 36.5v485l-43 -39q-16 -14 -34.5 -17t-30.5 13l-33 35q-12 14 -8 29.5zM186 47l676 1352q10 18 24.5 32.5t39.5 14.5h69 q20 0 28.5 -13.5t2.5 -33.5l-676 -1352q-10 -18 -24.5 -32.5t-38.5 -14.5h-70q-20 0 -30.5 14.5t-0.5 32.5zM780 520v19q0 78 46 130t139 52q92 0 136 -56.5t44 -134.5q0 -53 -37 -114.5t-98 -132.5q-41 -47 -63.5 -78t-24.5 -70h182q20 0 33.5 -14.5t13.5 -34.5v-39 q0 -16 -13.5 -31.5t-33.5 -15.5h-275q-16 0 -31.5 15.5t-15.5 31.5v72q0 37 13.5 73.5t33 69.5t42 60.5t42.5 48.5q41 41 69 85t28 74q0 23 -8.5 40.5t-36.5 17.5q-23 0 -38.5 -14.5t-15.5 -43.5v-10q0 -18 -15 -30.5t-36 -12.5h-33q-16 0 -31.5 12.5t-15.5 30.5z" />
<glyph unicode="&#xbe;" horiz-adv-x="1304" d="M82 918v12q0 16 10 32.5t33 16.5h43q16 0 30.5 -16.5t14.5 -32.5v-12q0 -18 7 -37t42 -19t50.5 19.5t19.5 40.5q2 14 2 40.5t-2 36.5q-6 35 -15.5 46.5t-37.5 11.5h-13q-20 0 -35.5 12t-15.5 37v33q0 20 15.5 32.5t35.5 12.5q35 0 50.5 13t15.5 71q0 27 -11.5 42 t-46.5 15q-57 0 -57 -35v-12q0 -16 -14.5 -32.5t-30.5 -16.5h-41q-23 0 -34 16.5t-11 32.5v10q0 72 46 120t142 48t139.5 -56.5t43.5 -131.5q0 -33 -10.5 -72t-49.5 -70q23 -16 44.5 -51t21.5 -98q0 -119 -45 -182.5t-156 -63.5q-92 0 -136 55.5t-44 131.5zM219 47l676 1352 q10 18 24.5 32.5t38.5 14.5h70q20 0 28.5 -13.5t2.5 -33.5l-676 -1352q-10 -18 -24.5 -32.5t-39.5 -14.5h-69q-20 0 -30.5 14.5t-0.5 32.5zM731 158v45q0 12 6 28l213 467q4 10 15.5 23.5t27.5 13.5h56q35 0 39 -21.5t-5 -37.5l-198 -430h112v100q0 16 9.5 27.5t29.5 11.5 h56q20 0 29 -11.5t9 -27.5v-100h54q39 0 39 -47v-47q0 -41 -39 -41h-54v-70q0 -14 -8 -27.5t-30 -13.5h-56q-20 0 -29.5 13.5t-9.5 27.5v70h-215q-18 0 -34.5 11t-16.5 36z" />
<glyph unicode="&#xbf;" horiz-adv-x="886" d="M92 -111q0 68 12.5 120t33 95t47 79t55.5 71t52 65.5t39.5 63.5t26 71t9.5 87v43q0 20 13 33.5t34 13.5h69q23 0 35 -13.5t12 -33.5v-68q0 -66 -15 -115t-40.5 -91t-57.5 -79.5t-65 -80.5q-29 -37 -48 -63t-29.5 -52.5t-15.5 -59t-5 -86.5q0 -27 8 -55.5t29.5 -52 t54.5 -38.5t82 -15q57 0 92 19.5t54.5 50t26.5 71.5t7 84q0 16 15.5 31.5t35.5 15.5h68q23 0 35 -13.5t12 -33.5q0 -193 -90 -287t-248 -94q-90 0 -154.5 24.5t-106.5 67.5t-62.5 101.5t-20.5 123.5zM295 901q0 57 41 98t100 41q57 0 98 -41t41 -98q0 -59 -40.5 -100 t-98.5 -41q-59 0 -100 41t-41 100z" />
<glyph unicode="&#xc0;" horiz-adv-x="868" d="M76 47l270 1352q4 20 14.5 33.5t32.5 13.5h82q37 0 47 -47l271 -1352q4 -20 -6.5 -33.5t-32.5 -13.5h-80q-41 0 -49 47l-52 240h-280l-49 -240q-8 -47 -49 -47h-80q-23 0 -33 13.5t-6 33.5zM168 1799q0 39 21.5 62.5t52.5 23.5q41 0 64.5 -11.5t53.5 -50.5l172 -221 q10 -14 11.5 -31.5t-13.5 -27.5l-14 -13q-10 -10 -27.5 -10t-38.5 16l-233 183q-18 14 -33.5 31.5t-15.5 48.5zM322 451h225l-80 507l-29 277h-8l-29 -277z" />
<glyph unicode="&#xc1;" horiz-adv-x="868" d="M76 47l270 1352q4 20 14.5 33.5t32.5 13.5h82q37 0 47 -47l271 -1352q4 -20 -6.5 -33.5t-32.5 -13.5h-80q-41 0 -49 47l-52 240h-280l-49 -240q-8 -47 -49 -47h-80q-23 0 -33 13.5t-6 33.5zM206.5 1563.5q0.5 17.5 11.5 31.5l172 221q31 39 54 50.5t64 11.5 q31 0 52.5 -23.5t21.5 -62.5q0 -31 -15.5 -48.5t-33.5 -31.5l-234 -183q-20 -16 -37.5 -16t-27.5 10l-14 13q-14 10 -13.5 27.5zM322 451h225l-80 507l-29 277h-8l-29 -277z" />
<glyph unicode="&#xc2;" horiz-adv-x="868" d="M76 47l270 1352q4 20 14.5 33.5t32.5 13.5h82q37 0 47 -47l271 -1352q4 -20 -6.5 -33.5t-32.5 -13.5h-80q-41 0 -49 47l-52 240h-280l-49 -240q-8 -47 -49 -47h-80q-23 0 -33 13.5t-6 33.5zM133.5 1551.5q-0.5 17.5 12.5 31.5l233 244q14 16 22.5 24.5t24.5 8.5h25 q16 0 25.5 -8.5t21.5 -24.5l215 -244q29 -31 -2 -51l-31 -19q-10 -8 -27.5 -5t-37.5 20l-185 135l-186 -135q-18 -16 -37.5 -20.5t-30.5 1.5l-26 15q-16 10 -16.5 27.5zM322 451h225l-80 507l-29 277h-8l-29 -277z" />
<glyph unicode="&#xc3;" horiz-adv-x="868" d="M76 47l270 1352q4 20 14.5 33.5t32.5 13.5h82q37 0 47 -47l271 -1352q4 -20 -6.5 -33.5t-32.5 -13.5h-80q-41 0 -49 47l-52 240h-280l-49 -240q-8 -47 -49 -47h-80q-23 0 -33 13.5t-6 33.5zM131 1599q16 78 69.5 117t114.5 39q49 0 83 -20.5t63 -45.5q14 -10 33.5 -23 t29.5 -16q27 -4 38 9.5t15 36.5q4 14 18.5 27t35.5 9l45 -10q16 -4 23 -18.5t3 -30.5q-12 -51 -32.5 -82t-45 -47t-50 -21.5t-48.5 -5.5q-33 0 -65.5 16.5t-65.5 43.5q-18 16 -40.5 30.5t-35.5 16.5q-33 4 -45 -11.5t-16 -31.5q-4 -18 -13.5 -29.5t-35.5 -7.5l-51 6 q-14 2 -22.5 16.5t-4.5 32.5zM322 451h225l-80 507l-29 277h-8l-29 -277z" />
<glyph unicode="&#xc4;" horiz-adv-x="868" d="M76 47l270 1352q4 20 14.5 33.5t32.5 13.5h82q37 0 47 -47l271 -1352q4 -20 -6.5 -33.5t-32.5 -13.5h-80q-41 0 -49 47l-52 240h-280l-49 -240q-8 -47 -49 -47h-80q-23 0 -33 13.5t-6 33.5zM139 1624q0 45 31.5 77t74.5 32q45 0 77 -32t32 -77q0 -43 -32 -74.5t-77 -31.5 q-43 0 -74.5 31.5t-31.5 74.5zM322 451h225l-80 507l-29 277h-8l-29 -277zM514 1624q0 45 31.5 77t74.5 32q45 0 77 -32t32 -77q0 -43 -32 -74.5t-77 -31.5q-43 0 -74.5 31.5t-31.5 74.5z" />
<glyph unicode="&#xc5;" horiz-adv-x="868" d="M76 47l270 1352q4 20 14.5 33.5t32.5 13.5h82q37 0 47 -47l271 -1352q4 -20 -6.5 -33.5t-32.5 -13.5h-80q-41 0 -49 47l-52 240h-280l-49 -240q-8 -47 -49 -47h-80q-23 0 -33 13.5t-6 33.5zM252 1671q0 37 14.5 70t39 57.5t57 38.5t69.5 14t70 -14t58.5 -38.5t39.5 -57.5 t14 -70t-14 -70.5t-39.5 -58t-58.5 -39t-70 -14.5t-69.5 14.5t-57 40t-39 58t-14.5 69.5zM322 451h225l-80 507l-29 277h-8l-29 -277zM358 1671q0 -29 21.5 -51.5t54.5 -22.5q31 0 52.5 23t21.5 51q0 35 -22.5 55.5t-51.5 20.5q-31 0 -53.5 -20.5t-22.5 -55.5z" />
<glyph unicode="&#xc6;" horiz-adv-x="1030" d="M12 47l400 1352q4 20 14 33.5t33 13.5h436q18 0 33.5 -12.5t15.5 -34.5v-70q0 -20 -15.5 -33.5t-33.5 -13.5h-211v-453h176q18 0 33.5 -12t15.5 -35v-63q0 -20 -15 -33.5t-34 -13.5h-176v-508h225q18 0 33.5 -12.5t15.5 -34.5v-70q0 -20 -15 -33.5t-34 -13.5h-346 q-18 2 -30.5 13.5t-12.5 39.5v283h-264l-78 -289q-12 -47 -49 -47h-78q-23 0 -34 13.5t-5 33.5zM297 492h223l-2 774z" />
<glyph unicode="&#xc7;" horiz-adv-x="874" d="M100 721q0 96 3 193.5t12 199.5q2 45 13 105.5t48 116t108.5 93t194.5 37.5q100 0 163 -35.5t97.5 -86t47 -105.5t12.5 -94v-72q0 -20 -12.5 -33.5t-34.5 -13.5h-70q-20 0 -33.5 13.5t-13.5 33.5v29q0 37 -8.5 72.5t-27.5 64.5t-51 46.5t-79 17.5q-61 0 -97 -20.5 t-56.5 -54.5t-27.5 -79t-9 -92q-6 -92 -9.5 -173t-4.5 -158t2 -155.5t9 -167.5q2 -47 10.5 -93t29 -83t57.5 -60.5t98 -23.5q51 0 86 20.5t55.5 55.5t29.5 79t9 91v74q0 20 12.5 33.5t34.5 13.5h70q20 0 33.5 -13.5t13.5 -33.5v-139q0 -41 -11 -92.5t-41 -100.5t-82 -88 t-136 -53l-51 -137q-16 -49 -62 -50h-51q-16 0 -29.5 13.5t-7.5 36.5l47 135q-90 12 -142 53t-81 92t-39 104.5t-12 88.5q-8 104 -12.5 201.5t-4.5 193.5z" />
<glyph unicode="&#xc8;" horiz-adv-x="843" d="M147 49v1350q0 16 13.5 31.5t34.5 15.5h524q18 0 33.5 -12.5t15.5 -34.5v-70q0 -20 -15.5 -33.5t-33.5 -13.5h-408v-453h351q18 0 33.5 -12t15.5 -35v-69q0 -20 -15.5 -33.5t-33.5 -13.5h-351v-502h422q18 0 33.5 -12.5t15.5 -34.5v-70q0 -20 -15 -33.5t-34 -13.5h-538 q-20 0 -34 15.5t-14 33.5zM248 1796q0 39 21.5 62.5t52.5 23.5q41 0 64.5 -11.5t53.5 -50.5l172 -221q10 -14 11.5 -31.5t-13.5 -27.5l-14 -13q-10 -10 -27.5 -10t-38.5 16l-233 183q-18 14 -33.5 31.5t-15.5 48.5z" />
<glyph unicode="&#xc9;" horiz-adv-x="843" d="M147 49v1350q0 16 13.5 31.5t34.5 15.5h524q18 0 33.5 -12.5t15.5 -34.5v-70q0 -20 -15.5 -33.5t-33.5 -13.5h-408v-453h351q18 0 33.5 -12t15.5 -35v-69q0 -20 -15.5 -33.5t-33.5 -13.5h-351v-502h422q18 0 33.5 -12.5t15.5 -34.5v-70q0 -20 -15 -33.5t-34 -13.5h-538 q-20 0 -34 15.5t-14 33.5zM246.5 1572.5q0.5 17.5 11.5 31.5l172 221q31 39 54 50.5t64 11.5q31 0 52.5 -23.5t21.5 -62.5q0 -31 -15.5 -48.5t-33.5 -31.5l-234 -183q-20 -16 -37.5 -16t-27.5 10l-14 13q-14 10 -13.5 27.5z" />
<glyph unicode="&#xca;" horiz-adv-x="843" d="M147 49v1350q0 16 13.5 31.5t34.5 15.5h524q18 0 33.5 -12.5t15.5 -34.5v-70q0 -20 -15.5 -33.5t-33.5 -13.5h-408v-453h351q18 0 33.5 -12t15.5 -35v-69q0 -20 -15.5 -33.5t-33.5 -13.5h-351v-502h422q18 0 33.5 -12.5t15.5 -34.5v-70q0 -20 -15 -33.5t-34 -13.5h-538 q-20 0 -34 15.5t-14 33.5zM161.5 1574.5q-0.5 17.5 12.5 31.5l233 244q14 16 22.5 24.5t24.5 8.5h25q16 0 25.5 -8.5t21.5 -24.5l215 -244q29 -31 -2 -51l-31 -19q-10 -8 -27.5 -5t-37.5 20l-185 135l-186 -135q-18 -16 -37.5 -20.5t-30.5 1.5l-26 15q-16 10 -16.5 27.5z " />
<glyph unicode="&#xcb;" horiz-adv-x="843" d="M147 49v1350q0 16 13.5 31.5t34.5 15.5h524q18 0 33.5 -12.5t15.5 -34.5v-70q0 -20 -15.5 -33.5t-33.5 -13.5h-408v-453h351q18 0 33.5 -12t15.5 -35v-69q0 -20 -15.5 -33.5t-33.5 -13.5h-351v-502h422q18 0 33.5 -12.5t15.5 -34.5v-70q0 -20 -15 -33.5t-34 -13.5h-538 q-20 0 -34 15.5t-14 33.5zM148 1626q0 45 31.5 77t74.5 32q45 0 77 -32t32 -77q0 -43 -32 -74.5t-77 -31.5q-43 0 -74.5 31.5t-31.5 74.5zM523 1626q0 45 31.5 77t74.5 32q45 0 77 -32t32 -77q0 -43 -32 -74.5t-77 -31.5q-43 0 -74.5 31.5t-31.5 74.5z" />
<glyph unicode="&#xcc;" horiz-adv-x="512" d="M25 1794q0 39 21.5 62.5t52.5 23.5q41 0 64.5 -11.5t53.5 -50.5l172 -221q10 -14 11.5 -31.5t-13.5 -27.5l-14 -13q-10 -10 -27.5 -10t-38.5 16l-233 183q-18 14 -33.5 31.5t-15.5 48.5zM190 49v1350q0 16 13.5 31.5t33.5 15.5h70q23 0 35 -15.5t12 -31.5v-1350 q0 -18 -12.5 -33.5t-34.5 -15.5h-70q-20 0 -33.5 15.5t-13.5 33.5z" />
<glyph unicode="&#xcd;" horiz-adv-x="512" d="M105.5 1553.5q0.5 17.5 11.5 31.5l172 221q31 39 54 50.5t64 11.5q31 0 52.5 -23.5t21.5 -62.5q0 -31 -15.5 -48.5t-33.5 -31.5l-234 -183q-20 -16 -37.5 -16t-27.5 10l-14 13q-14 10 -13.5 27.5zM145 49v1350q0 16 13.5 31.5t33.5 15.5h70q23 0 35 -15.5t12 -31.5v-1350 q0 -18 -12.5 -33.5t-34.5 -15.5h-70q-20 0 -33.5 15.5t-13.5 33.5z" />
<glyph unicode="&#xce;" horiz-adv-x="509" d="M-38.5 1553.5q-0.5 17.5 12.5 31.5l233 244q14 16 22.5 24.5t24.5 8.5h25q16 0 25.5 -8.5t21.5 -24.5l215 -244q29 -31 -2 -51l-31 -19q-10 -8 -27.5 -5t-37.5 20l-185 135l-186 -135q-18 -16 -37.5 -20.5t-30.5 1.5l-26 15q-16 10 -16.5 27.5zM160 49v1350 q0 16 13.5 31.5t33.5 15.5h70q23 0 35 -15.5t12 -31.5v-1350q0 -18 -12.5 -33.5t-34.5 -15.5h-70q-20 0 -33.5 15.5t-13.5 33.5z" />
<glyph unicode="&#xcf;" horiz-adv-x="512" d="M-37 1624q0 45 31.5 77t74.5 32q45 0 77 -32t32 -77q0 -43 -32 -74.5t-77 -31.5q-43 0 -74.5 31.5t-31.5 74.5zM174 49v1350q0 16 13.5 31.5t33.5 15.5h70q23 0 35 -15.5t12 -31.5v-1350q0 -18 -12.5 -33.5t-34.5 -15.5h-70q-20 0 -33.5 15.5t-13.5 33.5zM338 1624 q0 45 31.5 77t74.5 32q45 0 77 -32t32 -77q0 -43 -32 -74.5t-77 -31.5q-43 0 -74.5 31.5t-31.5 74.5z" />
<glyph unicode="&#xd0;" horiz-adv-x="1103" d="M70 707v69q0 20 15 33.5t32 13.5h149v576q0 16 13.5 31.5t33.5 15.5h316q113 0 179 -34t101 -83t47.5 -103.5t18.5 -92.5q29 -205 27.5 -404t-23.5 -405q-4 -45 -16.5 -101.5t-49 -105.5t-108.5 -83t-195 -34h-297q-20 0 -33.5 15.5t-13.5 33.5v610h-149 q-16 0 -31.5 12.5t-15.5 35.5zM428 164h193q61 0 97 18.5t56.5 51t27.5 74.5t13 89q20 174 17 332t-21 324q-6 45 -13 87t-27.5 73.5t-55.5 50t-97 18.5h-188l-2 -459h147q18 0 34 -13t16 -34v-69q0 -23 -15.5 -35.5t-34.5 -12.5h-147v-495z" />
<glyph unicode="&#xd1;" horiz-adv-x="1030" d="M147 49v1350q0 18 13.5 32.5t34.5 14.5h122q23 0 32 -15.5t16 -31.5l385 -1145l-31 412v731q0 18 12 33.5t35 15.5h70q20 0 33.5 -14.5t13.5 -34.5v-1350q0 -18 -13.5 -32.5t-33.5 -14.5h-123q-23 0 -33 15.5t-14 31.5l-387 1145l32 -432v-711q0 -18 -12 -33.5t-35 -15.5 h-69q-20 0 -34 14.5t-14 34.5zM221 1593q16 78 69.5 117t114.5 39q49 0 83 -20.5t63 -45.5q14 -10 33.5 -23t29.5 -16q27 -4 38 9.5t15 36.5q4 14 18.5 27t35.5 9l45 -10q16 -4 23 -18.5t3 -30.5q-12 -51 -32.5 -82t-45 -47t-50 -21.5t-48.5 -5.5q-33 0 -65.5 16.5 t-65.5 43.5q-18 16 -40.5 30.5t-35.5 16.5q-33 4 -45 -11.5t-16 -31.5q-4 -18 -13.5 -29.5t-35.5 -7.5l-51 6q-14 2 -22.5 16.5t-4.5 32.5z" />
<glyph unicode="&#xd2;" d="M100.5 726q-0.5 185 10.5 386q2 45 14 106.5t48 117t104.5 93t183.5 37.5t183.5 -37.5t104 -93t48 -117t14.5 -106.5q10 -201 10 -386t-10 -388q-2 -45 -14.5 -106.5t-48 -118t-104 -95t-183.5 -38.5t-183.5 38.5t-104.5 95t-48 118t-14 106.5q-10 203 -10.5 388z M264 726q2 -153 8 -323q2 -47 9.5 -94t28 -84t56 -59.5t95.5 -22.5q57 0 94 22.5t57.5 59.5t27.5 84t9 94q6 170 8 323t-8 321q-2 47 -10 93t-27.5 81.5t-56.5 58.5t-94 23q-59 0 -95 -23t-55.5 -58.5t-28 -81.5t-10.5 -93q-10 -168 -8 -321zM273 1796q0 39 21.5 62.5 t52.5 23.5q41 0 64.5 -11.5t53.5 -50.5l172 -221q10 -14 11.5 -31.5t-13.5 -27.5l-14 -13q-10 -10 -27.5 -10t-38.5 16l-233 183q-18 14 -33.5 31.5t-15.5 48.5z" />
<glyph unicode="&#xd3;" d="M100.5 726q-0.5 185 10.5 386q2 45 14 106.5t48 117t104.5 93t183.5 37.5t183.5 -37.5t104 -93t48 -117t14.5 -106.5q10 -201 10 -386t-10 -388q-2 -45 -14.5 -106.5t-48 -118t-104 -95t-183.5 -38.5t-183.5 38.5t-104.5 95t-48 118t-14 106.5q-10 203 -10.5 388z M259.5 1570.5q0.5 17.5 11.5 31.5l172 221q31 39 54 50.5t64 11.5q31 0 52.5 -23.5t21.5 -62.5q0 -31 -15.5 -48.5t-33.5 -31.5l-234 -183q-20 -16 -37.5 -16t-27.5 10l-14 13q-14 10 -13.5 27.5zM264 726q2 -153 8 -323q2 -47 9.5 -94t28 -84t56 -59.5t95.5 -22.5 q57 0 94 22.5t57.5 59.5t27.5 84t9 94q6 170 8 323t-8 321q-2 47 -10 93t-27.5 81.5t-56.5 58.5t-94 23q-59 0 -95 -23t-55.5 -58.5t-28 -81.5t-10.5 -93q-10 -168 -8 -321z" />
<glyph unicode="&#xd4;" d="M100.5 726q-0.5 185 10.5 386q2 45 14 106.5t48 117t104.5 93t183.5 37.5t183.5 -37.5t104 -93t48 -117t14.5 -106.5q10 -201 10 -386t-10 -388q-2 -45 -14.5 -106.5t-48 -118t-104 -95t-183.5 -38.5t-183.5 38.5t-104.5 95t-48 118t-14 106.5q-10 203 -10.5 388z M165.5 1567.5q-0.5 17.5 12.5 31.5l233 244q14 16 22.5 24.5t24.5 8.5h25q16 0 25.5 -8.5t21.5 -24.5l215 -244q29 -31 -2 -51l-31 -19q-10 -8 -27.5 -5t-37.5 20l-185 135l-186 -135q-18 -16 -37.5 -20.5t-30.5 1.5l-26 15q-16 10 -16.5 27.5zM264 726q2 -153 8 -323 q2 -47 9.5 -94t28 -84t56 -59.5t95.5 -22.5q57 0 94 22.5t57.5 59.5t27.5 84t9 94q6 170 8 323t-8 321q-2 47 -10 93t-27.5 81.5t-56.5 58.5t-94 23q-59 0 -95 -23t-55.5 -58.5t-28 -81.5t-10.5 -93q-10 -168 -8 -321z" />
<glyph unicode="&#xd5;" d="M100.5 726q-0.5 185 10.5 386q2 45 14 106.5t48 117t104.5 93t183.5 37.5t183.5 -37.5t104 -93t48 -117t14.5 -106.5q10 -201 10 -386t-10 -388q-2 -45 -14.5 -106.5t-48 -118t-104 -95t-183.5 -38.5t-183.5 38.5t-104.5 95t-48 118t-14 106.5q-10 203 -10.5 388z M164 1599q16 78 69.5 117t114.5 39q49 0 83 -20.5t63 -45.5q14 -10 33.5 -23t29.5 -16q27 -4 38 9.5t15 36.5q4 14 18.5 27t35.5 9l45 -10q16 -4 23 -18.5t3 -30.5q-12 -51 -32.5 -82t-45 -47t-50 -21.5t-48.5 -5.5q-33 0 -65.5 16.5t-65.5 43.5q-18 16 -40.5 30.5 t-35.5 16.5q-33 4 -45 -11.5t-16 -31.5q-4 -18 -13.5 -29.5t-35.5 -7.5l-51 6q-14 2 -22.5 16.5t-4.5 32.5zM264 726q2 -153 8 -323q2 -47 9.5 -94t28 -84t56 -59.5t95.5 -22.5q57 0 94 22.5t57.5 59.5t27.5 84t9 94q6 170 8 323t-8 321q-2 47 -10 93t-27.5 81.5t-56.5 58.5 t-94 23q-59 0 -95 -23t-55.5 -58.5t-28 -81.5t-10.5 -93q-10 -168 -8 -321z" />
<glyph unicode="&#xd6;" d="M100.5 726q-0.5 185 10.5 386q2 45 14 106.5t48 117t104.5 93t183.5 37.5t183.5 -37.5t104 -93t48 -117t14.5 -106.5q10 -201 10 -386t-10 -388q-2 -45 -14.5 -106.5t-48 -118t-104 -95t-183.5 -38.5t-183.5 38.5t-104.5 95t-48 118t-14 106.5q-10 203 -10.5 388z M170 1628q0 45 31.5 77t74.5 32q45 0 77 -32t32 -77q0 -43 -32 -74.5t-77 -31.5q-43 0 -74.5 31.5t-31.5 74.5zM264 726q2 -153 8 -323q2 -47 9.5 -94t28 -84t56 -59.5t95.5 -22.5q57 0 94 22.5t57.5 59.5t27.5 84t9 94q6 170 8 323t-8 321q-2 47 -10 93t-27.5 81.5 t-56.5 58.5t-94 23q-59 0 -95 -23t-55.5 -58.5t-28 -81.5t-10.5 -93q-10 -168 -8 -321zM545 1628q0 45 31.5 77t74.5 32q45 0 77 -32t32 -77q0 -43 -32 -74.5t-77 -31.5q-43 0 -74.5 31.5t-31.5 74.5z" />
<glyph unicode="&#xd7;" horiz-adv-x="1032" d="M125 182q2 21 14 31l262 262l-264 264q-10 12 -12 33t12 35l49 49q16 16 36 14t34 -16l262 -262l260 260q14 14 33.5 16t34.5 -10l49 -49q16 -16 13 -36.5t-13 -33.5l-262 -262l262 -264q12 -10 14 -29.5t-14 -36.5l-49 -49q-14 -14 -34.5 -13t-33.5 11l-260 264 l-262 -262q-14 -10 -33.5 -14t-36.5 12l-49 49q-14 16 -12 37z" />
<glyph unicode="&#xd8;" horiz-adv-x="987" d="M115 726q0 185 10 386q2 45 14.5 106.5t48 117t104 94t183.5 38.5q76 0 130 -18t93 -47l35 88q6 20 22.5 33.5t41.5 13.5h43q20 0 28.5 -13.5t1.5 -33.5l-79 -205q20 -47 26 -93t8 -81q8 -201 7 -387t-7 -387q-2 -45 -13 -106.5t-48 -117t-105.5 -94t-183.5 -38.5 q-57 0 -102 10t-80 26l-29 -73q-6 -20 -22.5 -33.5t-40.5 -13.5h-43q-20 0 -28.5 13t-2.5 34l63 164q-39 55 -51 118.5t-14 110.5q-10 203 -10 388zM281 726q2 -153 8 -323v-20t2 -21l336 857q-20 37 -56 60.5t-96 23.5q-59 0 -94 -23t-55.5 -58.5t-27.5 -81.5t-9 -93 q-10 -168 -8 -321zM358 184q43 -37 117 -37q57 0 93 23t56.5 58.5t28 81.5t9.5 93q4 147 5 283.5t-3 278.5z" />
<glyph unicode="&#xd9;" horiz-adv-x="952" d="M123 305v1094q0 20 12 33.5t35 13.5h70q20 0 33.5 -13.5t13.5 -33.5v-1012q0 -47 7 -90t27.5 -78t57.5 -55.5t98 -20.5t98 20.5t57.5 55.5t27 79t6.5 91v1010q0 20 12 33.5t35 13.5h69q20 0 33.5 -13.5t13.5 -33.5v-1075q0 -45 -10 -104.5t-48 -113t-109.5 -90 t-194.5 -36.5q-113 0 -180.5 36.5t-104.5 88t-48 106.5t-11 94zM244 1784q0 39 21.5 62.5t52.5 23.5q41 0 64.5 -11.5t53.5 -50.5l172 -221q10 -14 11.5 -31.5t-13.5 -27.5l-14 -13q-10 -10 -27.5 -10t-38.5 16l-233 183q-18 14 -33.5 31.5t-15.5 48.5z" />
<glyph unicode="&#xda;" horiz-adv-x="952" d="M123 305v1094q0 20 12 33.5t35 13.5h70q20 0 33.5 -13.5t13.5 -33.5v-1012q0 -47 7 -90t27.5 -78t57.5 -55.5t98 -20.5t98 20.5t57.5 55.5t27 79t6.5 91v1010q0 20 12 33.5t35 13.5h69q20 0 33.5 -13.5t13.5 -33.5v-1075q0 -45 -10 -104.5t-48 -113t-109.5 -90 t-194.5 -36.5q-113 0 -180.5 36.5t-104.5 88t-48 106.5t-11 94zM296.5 1567.5q0.5 17.5 11.5 31.5l172 221q31 39 54 50.5t64 11.5q31 0 52.5 -23.5t21.5 -62.5q0 -31 -15.5 -48.5t-33.5 -31.5l-234 -183q-20 -16 -37.5 -16t-27.5 10l-14 13q-14 10 -13.5 27.5z" />
<glyph unicode="&#xdb;" horiz-adv-x="952" d="M123 305v1094q0 20 12 33.5t35 13.5h70q20 0 33.5 -13.5t13.5 -33.5v-1012q0 -47 7 -90t27.5 -78t57.5 -55.5t98 -20.5t98 20.5t57.5 55.5t27 79t6.5 91v1010q0 20 12 33.5t35 13.5h69q20 0 33.5 -13.5t13.5 -33.5v-1075q0 -45 -10 -104.5t-48 -113t-109.5 -90 t-194.5 -36.5q-113 0 -180.5 36.5t-104.5 88t-48 106.5t-11 94zM165.5 1567.5q-0.5 17.5 12.5 31.5l233 244q14 16 22.5 24.5t24.5 8.5h25q16 0 25.5 -8.5t21.5 -24.5l215 -244q29 -31 -2 -51l-31 -19q-10 -8 -27.5 -5t-37.5 20l-185 135l-186 -135q-18 -16 -37.5 -20.5 t-30.5 1.5l-26 15q-16 10 -16.5 27.5z" />
<glyph unicode="&#xdc;" horiz-adv-x="952" d="M123 305v1094q0 20 12 33.5t35 13.5h70q20 0 33.5 -13.5t13.5 -33.5v-1012q0 -47 7 -90t27.5 -78t57.5 -55.5t98 -20.5t98 20.5t57.5 55.5t27 79t6.5 91v1010q0 20 12 33.5t35 13.5h69q20 0 33.5 -13.5t13.5 -33.5v-1075q0 -45 -10 -104.5t-48 -113t-109.5 -90 t-194.5 -36.5q-113 0 -180.5 36.5t-104.5 88t-48 106.5t-11 94zM178 1628q0 45 31.5 77t74.5 32q45 0 77 -32t32 -77q0 -43 -32 -74.5t-77 -31.5q-43 0 -74.5 31.5t-31.5 74.5zM553 1628q0 45 31.5 77t74.5 32q45 0 77 -32t32 -77q0 -43 -32 -74.5t-77 -31.5 q-43 0 -74.5 31.5t-31.5 74.5z" />
<glyph unicode="&#xdd;" horiz-adv-x="821" d="M55 1399q-8 18 4.5 32.5t34.5 14.5h88q20 0 30.5 -12.5t18.5 -34.5l172 -533l183 533q8 23 18 35t31 12h92q23 0 35 -14.5t4 -32.5l-281 -735v-615q0 -18 -12 -33.5t-35 -15.5h-69q-20 0 -33.5 15.5t-13.5 33.5v615zM269.5 1557.5q0.5 17.5 11.5 31.5l172 221 q31 39 54 50.5t64 11.5q31 0 52.5 -23.5t21.5 -62.5q0 -31 -15.5 -48.5t-33.5 -31.5l-234 -183q-20 -16 -37.5 -16t-27.5 10l-14 13q-14 10 -13.5 27.5z" />
<glyph unicode="&#xde;" horiz-adv-x="937" d="M131 29v1370q0 16 13.5 31.5t33.5 15.5h70q23 0 35 -15.5t12 -31.5v-195q53 35 106.5 44t83.5 9q23 0 58 -4t74.5 -18t78.5 -44t71 -80t52.5 -126t20.5 -182v-176q0 -55 -12.5 -130t-49.5 -143.5t-106.5 -116t-186.5 -47.5q-59 0 -107 13.5t-83 36.5v-211 q0 -18 -12.5 -33.5t-34.5 -15.5h-70q-20 0 -33.5 15t-13.5 34zM295 649q2 -94 17.5 -152.5t41 -90t59 -42t72.5 -10.5t74 11.5t60.5 45t41 95t15.5 164.5v86q0 70 -6 131t-26.5 107t-57.5 73t-101 27q-63 0 -101 -27t-57.5 -73t-25.5 -107.5t-6 -130.5v-107z" />
<glyph unicode="&#xdf;" horiz-adv-x="940" d="M147 49v1043q0 68 14.5 135t50.5 120.5t97.5 86t155.5 32.5q90 0 152.5 -32.5t101.5 -84t56.5 -115t17.5 -124.5q0 -72 -6.5 -139.5t-51.5 -128.5q-20 -29 -51 -45q106 -29 152.5 -122t46.5 -229q0 -80 -9.5 -159.5t-44 -143t-104.5 -103.5t-190 -40h-29 q-18 0 -33.5 13.5t-15.5 33.5v70q0 20 15 33.5t34 13.5h14q59 0 98 9t61.5 38t31 85t8.5 150q0 76 -19.5 124t-51.5 77t-71.5 40t-78.5 11h-9q-18 0 -33.5 13.5t-15.5 33.5v70q0 37 41 41q23 4 42.5 9t35.5 18q39 27 54.5 75t15.5 152q0 31 -6.5 64.5t-24.5 62.5t-50 47.5 t-83 18.5q-35 0 -63.5 -9.5t-49 -33t-31 -64.5t-10.5 -102v-1045q0 -18 -13 -33.5t-34 -15.5h-69q-20 0 -34 15.5t-14 33.5z" />
<glyph unicode="&#xe0;" horiz-adv-x="909" d="M82 270q0 68 18.5 115t49 80t69.5 56.5t80 43.5l283 146q0 47 -5.5 79.5t-20.5 53t-45 30t-81 9.5q-47 0 -74.5 -10.5t-43 -28t-21.5 -41t-10 -51.5q-6 -39 -41 -37l-86 4q-27 2 -32 21.5t-3 33.5q4 51 24.5 100.5t58.5 88t93 61.5t129 23q168 0 244.5 -77t76.5 -231 v-596h31q18 0 34.5 -14t16.5 -37v-45q0 -20 -16 -33.5t-35 -13.5h-88q-33 0 -49 15.5t-31 50.5q-41 -43 -101.5 -64.5t-127.5 -21.5q-66 0 -121 25.5t-94 66.5t-60.5 93t-21.5 105zM219 1393q0 39 21.5 62.5t52.5 23.5q41 0 64.5 -11.5t53.5 -50.5l172 -221 q10 -14 11.5 -31.5t-13.5 -27.5l-14 -13q-10 -10 -27.5 -10t-38.5 16l-233 183q-18 14 -33.5 31.5t-15.5 48.5zM246 266q0 -18 8 -39.5t25.5 -40t44 -31t65.5 -12.5q92 0 142.5 47.5t50.5 112.5v227l-228 -120q-61 -33 -84.5 -63t-23.5 -81z" />
<glyph unicode="&#xe1;" horiz-adv-x="909" d="M82 270q0 68 18.5 115t49 80t69.5 56.5t80 43.5l283 146q0 47 -5.5 79.5t-20.5 53t-45 30t-81 9.5q-47 0 -74.5 -10.5t-43 -28t-21.5 -41t-10 -51.5q-6 -39 -41 -37l-86 4q-27 2 -32 21.5t-3 33.5q4 51 24.5 100.5t58.5 88t93 61.5t129 23q168 0 244.5 -77t76.5 -231 v-596h31q18 0 34.5 -14t16.5 -37v-45q0 -20 -16 -33.5t-35 -13.5h-88q-33 0 -49 15.5t-31 50.5q-41 -43 -101.5 -64.5t-127.5 -21.5q-66 0 -121 25.5t-94 66.5t-60.5 93t-21.5 105zM246 266q0 -18 8 -39.5t25.5 -40t44 -31t65.5 -12.5q92 0 142.5 47.5t50.5 112.5v227 l-228 -120q-61 -33 -84.5 -63t-23.5 -81zM246.5 1164.5q0.5 17.5 11.5 31.5l172 221q31 39 54 50.5t64 11.5q31 0 52.5 -23.5t21.5 -62.5q0 -31 -15.5 -48.5t-33.5 -31.5l-234 -183q-20 -16 -37.5 -16t-27.5 10l-14 13q-14 10 -13.5 27.5z" />
<glyph unicode="&#xe2;" horiz-adv-x="909" d="M82 270q0 68 18.5 115t49 80t69.5 56.5t80 43.5l283 146q0 47 -5.5 79.5t-20.5 53t-45 30t-81 9.5q-47 0 -74.5 -10.5t-43 -28t-21.5 -41t-10 -51.5q-6 -39 -41 -37l-86 4q-27 2 -32 21.5t-3 33.5q4 51 24.5 100.5t58.5 88t93 61.5t129 23q168 0 244.5 -77t76.5 -231 v-596h31q18 0 34.5 -14t16.5 -37v-45q0 -20 -16 -33.5t-35 -13.5h-88q-33 0 -49 15.5t-31 50.5q-41 -43 -101.5 -64.5t-127.5 -21.5q-66 0 -121 25.5t-94 66.5t-60.5 93t-21.5 105zM143.5 1164.5q-0.5 17.5 12.5 31.5l233 244q14 16 22.5 24.5t24.5 8.5h25q16 0 25.5 -8.5 t21.5 -24.5l215 -244q29 -31 -2 -51l-31 -19q-10 -8 -27.5 -5t-37.5 20l-185 135l-186 -135q-18 -16 -37.5 -20.5t-30.5 1.5l-26 15q-16 10 -16.5 27.5zM246 266q0 -18 8 -39.5t25.5 -40t44 -31t65.5 -12.5q92 0 142.5 47.5t50.5 112.5v227l-228 -120q-61 -33 -84.5 -63 t-23.5 -81z" />
<glyph unicode="&#xe3;" horiz-adv-x="909" d="M82 270q0 68 18.5 115t49 80t69.5 56.5t80 43.5l283 146q0 47 -5.5 79.5t-20.5 53t-45 30t-81 9.5q-47 0 -74.5 -10.5t-43 -28t-21.5 -41t-10 -51.5q-6 -39 -41 -37l-86 4q-27 2 -32 21.5t-3 33.5q4 51 24.5 100.5t58.5 88t93 61.5t129 23q168 0 244.5 -77t76.5 -231 v-596h31q18 0 34.5 -14t16.5 -37v-45q0 -20 -16 -33.5t-35 -13.5h-88q-33 0 -49 15.5t-31 50.5q-41 -43 -101.5 -64.5t-127.5 -21.5q-66 0 -121 25.5t-94 66.5t-60.5 93t-21.5 105zM135 1216q16 78 69.5 117t114.5 39q49 0 83 -20.5t63 -45.5q14 -10 33.5 -23t29.5 -16 q27 -4 38 9.5t15 36.5q4 14 18.5 27t35.5 9l45 -10q16 -4 23 -18.5t3 -30.5q-12 -51 -32.5 -82t-45 -47t-50 -21.5t-48.5 -5.5q-33 0 -65.5 16.5t-65.5 43.5q-18 16 -40.5 30.5t-35.5 16.5q-33 4 -45 -11.5t-16 -31.5q-4 -18 -13.5 -29.5t-35.5 -7.5l-51 6q-14 2 -22.5 16.5 t-4.5 32.5zM246 266q0 -18 8 -39.5t25.5 -40t44 -31t65.5 -12.5q92 0 142.5 47.5t50.5 112.5v227l-228 -120q-61 -33 -84.5 -63t-23.5 -81z" />
<glyph unicode="&#xe4;" horiz-adv-x="909" d="M82 270q0 68 18.5 115t49 80t69.5 56.5t80 43.5l283 146q0 47 -5.5 79.5t-20.5 53t-45 30t-81 9.5q-47 0 -74.5 -10.5t-43 -28t-21.5 -41t-10 -51.5q-6 -39 -41 -37l-86 4q-27 2 -32 21.5t-3 33.5q4 51 24.5 100.5t58.5 88t93 61.5t129 23q168 0 244.5 -77t76.5 -231 v-596h31q18 0 34.5 -14t16.5 -37v-45q0 -20 -16 -33.5t-35 -13.5h-88q-33 0 -49 15.5t-31 50.5q-41 -43 -101.5 -64.5t-127.5 -21.5q-66 0 -121 25.5t-94 66.5t-60.5 93t-21.5 105zM139 1245q0 45 31.5 77t74.5 32q45 0 77 -32t32 -77q0 -43 -32 -74.5t-77 -31.5 q-43 0 -74.5 31.5t-31.5 74.5zM246 266q0 -18 8 -39.5t25.5 -40t44 -31t65.5 -12.5q92 0 142.5 47.5t50.5 112.5v227l-228 -120q-61 -33 -84.5 -63t-23.5 -81zM514 1245q0 45 31.5 77t74.5 32q45 0 77 -32t32 -77q0 -43 -32 -74.5t-77 -31.5q-43 0 -74.5 31.5t-31.5 74.5z " />
<glyph unicode="&#xe5;" horiz-adv-x="909" d="M82 270q0 68 18.5 115t49 80t69.5 56.5t80 43.5l283 146q0 47 -5.5 79.5t-20.5 53t-45 30t-81 9.5q-47 0 -74.5 -10.5t-43 -28t-21.5 -41t-10 -51.5q-6 -39 -41 -37l-86 4q-27 2 -32 21.5t-3 33.5q4 51 24.5 100.5t58.5 88t93 61.5t129 23q168 0 244.5 -77t76.5 -231 v-596h31q18 0 34.5 -14t16.5 -37v-45q0 -20 -16 -33.5t-35 -13.5h-88q-33 0 -49 15.5t-31 50.5q-41 -43 -101.5 -64.5t-127.5 -21.5q-66 0 -121 25.5t-94 66.5t-60.5 93t-21.5 105zM246 266q0 -18 8 -39.5t25.5 -40t44 -31t65.5 -12.5q92 0 142.5 47.5t50.5 112.5v227 l-228 -120q-61 -33 -84.5 -63t-23.5 -81zM250 1313q0 37 14.5 70t39 57.5t57 38.5t69.5 14t70 -14t58.5 -38.5t39.5 -57.5t14 -70t-14 -70.5t-39.5 -58t-58.5 -39t-70 -14.5t-69.5 14.5t-57 40t-39 58t-14.5 69.5zM356 1313q0 -29 21.5 -51.5t54.5 -22.5q31 0 52.5 23 t21.5 51q0 35 -22.5 55.5t-51.5 20.5q-31 0 -53.5 -20.5t-22.5 -55.5z" />
<glyph unicode="&#xe6;" horiz-adv-x="1345" d="M82 270q0 68 19.5 114t50 79t69.5 56.5t78 45.5l283 146q0 47 -5.5 79.5t-20.5 53t-45 30t-81 9.5q-47 0 -74.5 -10.5t-43 -28t-21.5 -41t-10 -51.5q-6 -39 -41 -37l-95 6q-20 2 -24 20.5t-2 32.5q4 51 24.5 100.5t58.5 88t93 61.5t129 23q184 0 262 -99q43 47 101.5 73 t134.5 26q98 0 162.5 -37t102.5 -92.5t53 -121t15 -124.5v-123q0 -37 -19 -63.5t-54 -26.5h-437v-58q6 -80 28 -131t48.5 -78.5t54 -38t48.5 -10.5q68 0 111.5 37t68.5 121q8 31 49 25l86 -15q39 -6 33 -41q-8 -41 -27.5 -92t-58.5 -95t-102.5 -73.5t-159.5 -29.5 q-172 0 -254 126q-23 -23 -47.5 -45t-58.5 -40.5t-79 -29.5t-106 -11q-66 0 -121 25.5t-94 66.5t-60.5 93t-21.5 105zM246 266q0 -18 9 -39.5t27.5 -40t46 -31t66.5 -12.5q57 0 94 22.5t56.5 55.5t27 69t7.5 62v176l-226 -118q-61 -33 -84.5 -63t-23.5 -81zM745 614h347 q0 33 -5.5 79t-22.5 88t-51 72t-91 30t-92 -30t-53.5 -72t-25 -88t-6.5 -79z" />
<glyph unicode="&#xe7;" horiz-adv-x="843" d="M98 416v176q0 160 42 251t99.5 136t118 56.5t97.5 11.5q33 0 78 -7.5t92 -33t90 -76.5t67 -139q10 -31 7 -51.5t-21 -24.5l-92 -19q-29 -6 -39 11.5t-12 27.5q-6 55 -49.5 101.5t-120.5 46.5q-63 0 -101.5 -27t-59 -73t-26.5 -107.5t-6 -130.5v-86q0 -102 15.5 -164 t41 -95.5t60.5 -45t76 -11.5q68 0 110.5 33t61.5 111q4 16 14 30.5t31 10.5l98 -19q14 -4 18.5 -18.5t2.5 -24.5q-8 -41 -27 -86t-50.5 -85t-78.5 -69.5t-115 -39.5l-47 -131q-16 -49 -61 -50h-52q-16 0 -29.5 13.5t-6.5 36.5l43 133q-86 18 -139.5 68t-82 113.5t-38 130.5 t-9.5 116z" />
<glyph unicode="&#xe8;" horiz-adv-x="884" d="M98 426v166q0 225 89 340t255 115t255 -115t89 -318v-67q0 -37 -19 -66.5t-60 -29.5h-445q0 -106 19.5 -166t49 -89.5t62.5 -35.5t60 -6q55 0 99 23.5t73 101.5q12 39 49 28l82 -20q20 -4 25 -20.5t-1 -33.5q-10 -27 -27.5 -67.5t-54 -79.5t-98.5 -67.5t-158 -28.5 q-158 0 -251 113.5t-93 322.5zM215 1393q0 39 21.5 62.5t52.5 23.5q41 0 64.5 -11.5t53.5 -50.5l172 -221q10 -14 11.5 -31.5t-13.5 -27.5l-14 -13q-10 -10 -27.5 -10t-38.5 16l-233 183q-18 14 -33.5 31.5t-15.5 48.5zM264 614h357q0 35 -4.5 81t-21.5 88t-53 71t-100 29 q-55 0 -89 -19.5t-52 -55.5t-26.5 -85t-10.5 -109z" />
<glyph unicode="&#xe9;" horiz-adv-x="884" d="M98 426v166q0 225 89 340t255 115t255 -115t89 -318v-67q0 -37 -19 -66.5t-60 -29.5h-445q0 -106 19.5 -166t49 -89.5t62.5 -35.5t60 -6q55 0 99 23.5t73 101.5q12 39 49 28l82 -20q20 -4 25 -20.5t-1 -33.5q-10 -27 -27.5 -67.5t-54 -79.5t-98.5 -67.5t-158 -28.5 q-158 0 -251 113.5t-93 322.5zM228.5 1164.5q0.5 17.5 11.5 31.5l172 221q31 39 54 50.5t64 11.5q31 0 52.5 -23.5t21.5 -62.5q0 -31 -15.5 -48.5t-33.5 -31.5l-234 -183q-20 -16 -37.5 -16t-27.5 10l-14 13q-14 10 -13.5 27.5zM264 614h357q0 35 -4.5 81t-21.5 88t-53 71 t-100 29q-55 0 -89 -19.5t-52 -55.5t-26.5 -85t-10.5 -109z" />
<glyph unicode="&#xea;" horiz-adv-x="884" d="M98 426v166q0 225 89 340t255 115t255 -115t89 -318v-67q0 -37 -19 -66.5t-60 -29.5h-445q0 -106 19.5 -166t49 -89.5t62.5 -35.5t60 -6q55 0 99 23.5t73 101.5q12 39 49 28l82 -20q20 -4 25 -20.5t-1 -33.5q-10 -27 -27.5 -67.5t-54 -79.5t-98.5 -67.5t-158 -28.5 q-158 0 -251 113.5t-93 322.5zM149.5 1156.5q-0.5 17.5 12.5 31.5l233 244q14 16 22.5 24.5t24.5 8.5h25q16 0 25.5 -8.5t21.5 -24.5l215 -244q29 -31 -2 -51l-31 -19q-10 -8 -27.5 -5t-37.5 20l-185 135l-186 -135q-18 -16 -37.5 -20.5t-30.5 1.5l-26 15q-16 10 -16.5 27.5 zM264 614h357q0 35 -4.5 81t-21.5 88t-53 71t-100 29q-55 0 -89 -19.5t-52 -55.5t-26.5 -85t-10.5 -109z" />
<glyph unicode="&#xeb;" horiz-adv-x="884" d="M98 426v166q0 225 89 340t255 115t255 -115t89 -318v-67q0 -37 -19 -66.5t-60 -29.5h-445q0 -106 19.5 -166t49 -89.5t62.5 -35.5t60 -6q55 0 99 23.5t73 101.5q12 39 49 28l82 -20q20 -4 25 -20.5t-1 -33.5q-10 -27 -27.5 -67.5t-54 -79.5t-98.5 -67.5t-158 -28.5 q-158 0 -251 113.5t-93 322.5zM135 1245q0 45 31.5 77t74.5 32q45 0 77 -32t32 -77q0 -43 -32 -74.5t-77 -31.5q-43 0 -74.5 31.5t-31.5 74.5zM264 614h357q0 35 -4.5 81t-21.5 88t-53 71t-100 29q-55 0 -89 -19.5t-52 -55.5t-26.5 -85t-10.5 -109zM510 1245q0 45 31.5 77 t74.5 32q45 0 77 -32t32 -77q0 -43 -32 -74.5t-77 -31.5q-43 0 -74.5 31.5t-31.5 74.5z" />
<glyph unicode="&#xec;" horiz-adv-x="595" d="M41 932v57q0 20 14.5 33.5t32.5 13.5h277q25 0 38 -13t13 -34v-942q0 -20 -12.5 -33.5t-34.5 -13.5h-70q-20 0 -33.5 13.5t-13.5 33.5v836h-164q-18 0 -32.5 16t-14.5 33zM76 1393q0 39 21.5 62.5t52.5 23.5q41 0 64.5 -11.5t53.5 -50.5l172 -221q10 -14 11.5 -31.5 t-13.5 -27.5l-14 -13q-10 -10 -27.5 -10t-38.5 16l-233 183q-18 14 -33.5 31.5t-15.5 48.5z" />
<glyph unicode="&#xed;" horiz-adv-x="595" d="M41 932v57q0 20 14.5 33.5t32.5 13.5h277q25 0 38 -13t13 -34v-942q0 -20 -12.5 -33.5t-34.5 -13.5h-70q-20 0 -33.5 13.5t-13.5 33.5v836h-164q-18 0 -32.5 16t-14.5 33zM154.5 1164.5q0.5 17.5 11.5 31.5l172 221q31 39 54 50.5t64 11.5q31 0 52.5 -23.5t21.5 -62.5 q0 -31 -15.5 -48.5t-33.5 -31.5l-234 -183q-20 -16 -37.5 -16t-27.5 10l-14 13q-14 10 -13.5 27.5z" />
<glyph unicode="&#xee;" horiz-adv-x="591" d="M2.5 1164.5q-0.5 17.5 12.5 31.5l233 244q14 16 22.5 24.5t24.5 8.5h25q16 0 25.5 -8.5t21.5 -24.5l215 -244q29 -31 -2 -51l-31 -19q-10 -8 -27.5 -5t-37.5 20l-185 135l-186 -135q-18 -16 -37.5 -20.5t-30.5 1.5l-26 15q-16 10 -16.5 27.5zM57 932v57q0 20 14.5 33.5 t32.5 13.5h277q25 0 38 -13t13 -34v-942q0 -20 -12.5 -33.5t-34.5 -13.5h-70q-20 0 -33.5 13.5t-13.5 33.5v836h-164q-18 0 -32.5 16t-14.5 33z" />
<glyph unicode="&#xef;" horiz-adv-x="589" d="M2 1245q0 45 31.5 77t74.5 32q45 0 77 -32t32 -77q0 -43 -32 -74.5t-77 -31.5q-43 0 -74.5 31.5t-31.5 74.5zM53 932v57q0 20 14.5 33.5t32.5 13.5h277q25 0 38 -13t13 -34v-942q0 -20 -12.5 -33.5t-34.5 -13.5h-70q-20 0 -33.5 13.5t-13.5 33.5v836h-164q-18 0 -32.5 16 t-14.5 33zM377 1245q0 45 31.5 77t74.5 32q45 0 77 -32t32 -77q0 -43 -32 -74.5t-77 -31.5q-43 0 -74.5 31.5t-31.5 74.5z" />
<glyph unicode="&#xf0;" horiz-adv-x="991" d="M98 416v176q0 160 42 251t99.5 136t118 56.5t97.5 11.5q53 0 79.5 -7.5t59.5 -17.5v133h-164q-16 0 -31.5 12.5t-15.5 34.5v70q0 20 15.5 33.5t31.5 13.5h164v78q0 18 12 33.5t35 15.5h70q20 0 33.5 -16.5t13.5 -32.5v-78h116q18 0 34 -13.5t16 -33.5v-70 q0 -23 -15.5 -35t-34.5 -12h-116v-1108q0 -20 -12.5 -33.5t-30.5 -13.5h-78q-20 0 -31.5 16.5t-11.5 36.5q-29 -41 -62.5 -57t-87.5 -16q-78 0 -133 23.5t-94 62t-62.5 86t-36 96.5t-16.5 93t-4 75zM262 459q0 -102 15.5 -164t41 -95.5t58 -45t67.5 -11.5q63 0 106.5 50.5 t43.5 154.5v389q0 63 -31 104.5t-108 41.5q-63 0 -101.5 -27t-59 -73t-26.5 -107.5t-6 -130.5v-86z" />
<glyph unicode="&#xf1;" horiz-adv-x="897" d="M131 47v942q0 16 13.5 31.5t33.5 15.5h70q23 0 35 -15t12 -32v-59q41 55 103.5 86t117.5 31q96 0 147.5 -33t74 -92.5t24.5 -143.5t2 -184v-547q0 -16 -11.5 -31.5t-33.5 -15.5h-74q-23 0 -35 16.5t-12 32.5v645q0 37 -1 72t-8 60.5t-24.5 41t-50.5 15.5 q-31 0 -68.5 -19.5t-72.5 -56.5t-58.5 -89t-23.5 -116v-555q0 -16 -11.5 -31.5t-31.5 -15.5h-70q-20 0 -33.5 15.5t-13.5 31.5zM166 1212q16 78 69.5 117t114.5 39q49 0 83 -20.5t63 -45.5q14 -10 33.5 -23t29.5 -16q27 -4 38 9.5t15 36.5q4 14 18.5 27t35.5 9l45 -10 q16 -4 23 -18.5t3 -30.5q-12 -51 -32.5 -82t-45 -47t-50 -21.5t-48.5 -5.5q-33 0 -65.5 16.5t-65.5 43.5q-18 16 -40.5 30.5t-35.5 16.5q-33 4 -45 -11.5t-16 -31.5q-4 -18 -13.5 -29.5t-35.5 -7.5l-51 6q-14 2 -22.5 16.5t-4.5 32.5z" />
<glyph unicode="&#xf2;" horiz-adv-x="905" d="M98 426v166q0 106 20.5 182t52.5 126t71 80t78.5 44t74.5 18.5t58 4.5t57.5 -4.5t74.5 -18.5t78.5 -44t70.5 -80t52.5 -126t20.5 -182v-166q0 -55 -12.5 -130t-49 -143.5t-106 -115.5t-186.5 -47t-186.5 47t-106.5 115.5t-49.5 143.5t-12.5 130zM262 469 q0 -102 15.5 -163.5t41 -95.5t60.5 -45t74 -11t73.5 11t60 45t41 95.5t15.5 163.5v76q0 70 -6 131t-26.5 107t-57.5 73t-100 27t-101.5 -27t-58 -73t-25.5 -107.5t-6 -130.5v-76zM262 1393q0 39 21.5 62.5t52.5 23.5q41 0 64.5 -11.5t53.5 -50.5l172 -221q10 -14 11.5 -31.5 t-13.5 -27.5l-14 -13q-10 -10 -27.5 -10t-38.5 16l-233 183q-18 14 -33.5 31.5t-15.5 48.5z" />
<glyph unicode="&#xf3;" horiz-adv-x="905" d="M98 426v166q0 106 20.5 182t52.5 126t71 80t78.5 44t74.5 18.5t58 4.5t57.5 -4.5t74.5 -18.5t78.5 -44t70.5 -80t52.5 -126t20.5 -182v-166q0 -55 -12.5 -130t-49 -143.5t-106 -115.5t-186.5 -47t-186.5 47t-106.5 115.5t-49.5 143.5t-12.5 130zM262 469 q0 -102 15.5 -163.5t41 -95.5t60.5 -45t74 -11t73.5 11t60 45t41 95.5t15.5 163.5v76q0 70 -6 131t-26.5 107t-57.5 73t-100 27t-101.5 -27t-58 -73t-25.5 -107.5t-6 -130.5v-76zM277.5 1166.5q0.5 17.5 11.5 31.5l172 221q31 39 54 50.5t64 11.5q31 0 52.5 -23.5 t21.5 -62.5q0 -31 -15.5 -48.5t-33.5 -31.5l-234 -183q-20 -16 -37.5 -16t-27.5 10l-14 13q-14 10 -13.5 27.5z" />
<glyph unicode="&#xf4;" horiz-adv-x="905" d="M98 426v166q0 106 20.5 182t52.5 126t71 80t78.5 44t74.5 18.5t58 4.5t57.5 -4.5t74.5 -18.5t78.5 -44t70.5 -80t52.5 -126t20.5 -182v-166q0 -55 -12.5 -130t-49 -143.5t-106 -115.5t-186.5 -47t-186.5 47t-106.5 115.5t-49.5 143.5t-12.5 130zM155.5 1156.5 q-0.5 17.5 12.5 31.5l233 244q14 16 22.5 24.5t24.5 8.5h25q16 0 25.5 -8.5t21.5 -24.5l215 -244q29 -31 -2 -51l-31 -19q-10 -8 -27.5 -5t-37.5 20l-185 135l-186 -135q-18 -16 -37.5 -20.5t-30.5 1.5l-26 15q-16 10 -16.5 27.5zM262 469q0 -102 15.5 -163.5t41 -95.5 t60.5 -45t74 -11t73.5 11t60 45t41 95.5t15.5 163.5v76q0 70 -6 131t-26.5 107t-57.5 73t-100 27t-101.5 -27t-58 -73t-25.5 -107.5t-6 -130.5v-76z" />
<glyph unicode="&#xf5;" horiz-adv-x="905" d="M98 426v166q0 106 20.5 182t52.5 126t71 80t78.5 44t74.5 18.5t58 4.5t57.5 -4.5t74.5 -18.5t78.5 -44t70.5 -80t52.5 -126t20.5 -182v-166q0 -55 -12.5 -130t-49 -143.5t-106 -115.5t-186.5 -47t-186.5 47t-106.5 115.5t-49.5 143.5t-12.5 130zM150 1216q16 78 69.5 117 t114.5 39q49 0 83 -20.5t63 -45.5q14 -10 33.5 -23t29.5 -16q27 -4 38 9.5t15 36.5q4 14 18.5 27t35.5 9l45 -10q16 -4 23 -18.5t3 -30.5q-12 -51 -32.5 -82t-45 -47t-50 -21.5t-48.5 -5.5q-33 0 -65.5 16.5t-65.5 43.5q-18 16 -40.5 30.5t-35.5 16.5q-33 4 -45 -11.5 t-16 -31.5q-4 -18 -13.5 -29.5t-35.5 -7.5l-51 6q-14 2 -22.5 16.5t-4.5 32.5zM262 469q0 -102 15.5 -163.5t41 -95.5t60.5 -45t74 -11t73.5 11t60 45t41 95.5t15.5 163.5v76q0 70 -6 131t-26.5 107t-57.5 73t-100 27t-101.5 -27t-58 -73t-25.5 -107.5t-6 -130.5v-76z" />
<glyph unicode="&#xf6;" horiz-adv-x="905" d="M98 426v166q0 106 20.5 182t52.5 126t71 80t78.5 44t74.5 18.5t58 4.5t57.5 -4.5t74.5 -18.5t78.5 -44t70.5 -80t52.5 -126t20.5 -182v-166q0 -55 -12.5 -130t-49 -143.5t-106 -115.5t-186.5 -47t-186.5 47t-106.5 115.5t-49.5 143.5t-12.5 130zM166 1249q0 45 31.5 77 t74.5 32q45 0 77 -32t32 -77q0 -43 -32 -74.5t-77 -31.5q-43 0 -74.5 31.5t-31.5 74.5zM262 469q0 -102 15.5 -163.5t41 -95.5t60.5 -45t74 -11t73.5 11t60 45t41 95.5t15.5 163.5v76q0 70 -6 131t-26.5 107t-57.5 73t-100 27t-101.5 -27t-58 -73t-25.5 -107.5t-6 -130.5 v-76zM541 1249q0 45 31.5 77t74.5 32q45 0 77 -32t32 -77q0 -43 -32 -74.5t-77 -31.5q-43 0 -74.5 31.5t-31.5 74.5z" />
<glyph unicode="&#xf7;" horiz-adv-x="1058" d="M123 467v70q0 20 15.5 33.5t31.5 13.5h717q18 0 33.5 -13.5t15.5 -33.5v-70q0 -23 -15.5 -35t-33.5 -12h-717q-16 0 -31.5 12t-15.5 35zM416 139q0 53 36.5 90t88.5 37q53 0 90 -36.5t37 -90.5q0 -51 -37 -88t-90 -37q-51 0 -88 37t-37 88zM416 877q0 53 36.5 90t88.5 37 q53 0 90 -37t37 -90q0 -51 -37 -88t-90 -37q-51 0 -88 37t-37 88z" />
<glyph unicode="&#xf8;" horiz-adv-x="843" d="M57 530q0 127 15.5 224.5t55.5 162t109.5 97.5t178.5 33q51 0 98 -11l35 111q6 20 15 33.5t34 13.5h53q20 0 27.5 -13.5t1.5 -33.5l-45 -150q45 -29 72.5 -78t43 -111.5t19.5 -133t4 -144.5q0 -117 -14.5 -217t-53 -175t-109.5 -116.5t-181 -41.5q-29 0 -43.5 4t-36.5 8 l-35 -117q-6 -20 -22.5 -33.5t-40.5 -13.5h-50q-20 0 -28 13.5t-2 33.5l49 160q-47 33 -77 83t-46 113.5t-21.5 139t-5.5 159.5zM225 528q0 -92 9.5 -165.5t33.5 -124.5l197 639q-10 2 -22.5 3t-26.5 1q-55 0 -91 -19.5t-58.5 -61.5t-32 -108.5t-9.5 -163.5zM383 150 q12 -4 14 -5.5t19 -1.5q57 0 96 29t62.5 81t32.5 122.5t9 156.5q0 102 -5 171t-31 110z" />
<glyph unicode="&#xf9;" horiz-adv-x="894" d="M131 342v645q0 20 11.5 34.5t33.5 14.5h74q20 0 33.5 -16t13.5 -33v-637q0 -43 1 -78.5t10 -62.5t27.5 -41t53.5 -14q31 0 68 20.5t69.5 57t55 88t22.5 114.5v555q0 16 10.5 31.5t32.5 15.5h70q20 0 33.5 -15t13.5 -32v-942q0 -16 -13.5 -31.5t-33.5 -15.5h-70 q-23 0 -35 15.5t-12 31.5v59q-41 -55 -101.5 -85.5t-138.5 -30.5q-131 0 -180 84t-49 268zM205 1393q0 39 21.5 62.5t52.5 23.5q41 0 64.5 -11.5t53.5 -50.5l172 -221q10 -14 11.5 -31.5t-13.5 -27.5l-14 -13q-10 -10 -27.5 -10t-38.5 16l-233 183q-18 14 -33.5 31.5 t-15.5 48.5z" />
<glyph unicode="&#xfa;" horiz-adv-x="894" d="M131 342v645q0 20 11.5 34.5t33.5 14.5h74q20 0 33.5 -16t13.5 -33v-637q0 -43 1 -78.5t10 -62.5t27.5 -41t53.5 -14q31 0 68 20.5t69.5 57t55 88t22.5 114.5v555q0 16 10.5 31.5t32.5 15.5h70q20 0 33.5 -15t13.5 -32v-942q0 -16 -13.5 -31.5t-33.5 -15.5h-70 q-23 0 -35 15.5t-12 31.5v59q-41 -55 -101.5 -85.5t-138.5 -30.5q-131 0 -180 84t-49 268zM234.5 1164.5q0.5 17.5 11.5 31.5l172 221q31 39 54 50.5t64 11.5q31 0 52.5 -23.5t21.5 -62.5q0 -31 -15.5 -48.5t-33.5 -31.5l-234 -183q-20 -16 -37.5 -16t-27.5 10l-14 13 q-14 10 -13.5 27.5z" />
<glyph unicode="&#xfb;" horiz-adv-x="894" d="M131 342v645q0 20 11.5 34.5t33.5 14.5h74q20 0 33.5 -16t13.5 -33v-637q0 -43 1 -78.5t10 -62.5t27.5 -41t53.5 -14q31 0 68 20.5t69.5 57t55 88t22.5 114.5v555q0 16 10.5 31.5t32.5 15.5h70q20 0 33.5 -15t13.5 -32v-942q0 -16 -13.5 -31.5t-33.5 -15.5h-70 q-23 0 -35 15.5t-12 31.5v59q-41 -55 -101.5 -85.5t-138.5 -30.5q-131 0 -180 84t-49 268zM141.5 1164.5q-0.5 17.5 12.5 31.5l233 244q14 16 22.5 24.5t24.5 8.5h25q16 0 25.5 -8.5t21.5 -24.5l215 -244q29 -31 -2 -51l-31 -19q-10 -8 -27.5 -5t-37.5 20l-185 135 l-186 -135q-18 -16 -37.5 -20.5t-30.5 1.5l-26 15q-16 10 -16.5 27.5z" />
<glyph unicode="&#xfc;" horiz-adv-x="894" d="M131 342v645q0 20 11.5 34.5t33.5 14.5h74q20 0 33.5 -16t13.5 -33v-637q0 -43 1 -78.5t10 -62.5t27.5 -41t53.5 -14q31 0 68 20.5t69.5 57t55 88t22.5 114.5v555q0 16 10.5 31.5t32.5 15.5h70q20 0 33.5 -15t13.5 -32v-942q0 -16 -13.5 -31.5t-33.5 -15.5h-70 q-23 0 -35 15.5t-12 31.5v59q-41 -55 -101.5 -85.5t-138.5 -30.5q-131 0 -180 84t-49 268zM152 1245q0 45 31.5 77t74.5 32q45 0 77 -32t32 -77q0 -43 -32 -74.5t-77 -31.5q-43 0 -74.5 31.5t-31.5 74.5zM527 1245q0 45 31.5 77t74.5 32q45 0 77 -32t32 -77q0 -43 -32 -74.5 t-77 -31.5q-43 0 -74.5 31.5t-31.5 74.5z" />
<glyph unicode="&#xfd;" horiz-adv-x="835" d="M51 989q-6 20 5.5 33.5t33.5 13.5h100q37 0 50 -47l198 -686l172 686q4 18 16.5 32.5t30.5 14.5h91q47 0 34 -49l-319 -1247q-10 -39 -43 -70.5t-98 -31.5h-154q-18 0 -33.5 13t-15.5 34v69q0 23 15.5 35t33.5 12h86q70 0 84 72l27 139zM265.5 1127.5q0.5 17.5 11.5 31.5 l172 221q31 39 54 50.5t64 11.5q31 0 52.5 -23.5t21.5 -62.5q0 -31 -15.5 -48.5t-33.5 -31.5l-234 -183q-20 -16 -37.5 -16t-27.5 10l-14 13q-14 10 -13.5 27.5z" />
<glyph unicode="&#xfe;" horiz-adv-x="937" d="M131 -334v1733q0 16 13.5 31.5t33.5 15.5h70q23 0 35 -15.5t12 -31.5v-406q53 35 106.5 44.5t83.5 9.5q23 0 58 -4.5t74.5 -18.5t78.5 -44t71 -80t52.5 -126t20.5 -182v-176q0 -55 -12.5 -130t-49.5 -143.5t-106.5 -115.5t-186.5 -47q-59 0 -107 13t-83 36v-363 q0 -18 -12.5 -33.5t-34.5 -15.5h-70q-20 0 -33.5 15.5t-13.5 33.5zM295 438q2 -94 17.5 -152.5t41 -90t59 -42t72.5 -10.5t74 11.5t60.5 45t41 95t15.5 164.5v86q0 70 -6 131t-26.5 107t-57.5 73t-101 27q-63 0 -101 -27t-57.5 -73t-25.5 -107.5t-6 -130.5v-107z" />
<glyph unicode="&#xff;" horiz-adv-x="835" d="M51 989q-6 20 5.5 33.5t33.5 13.5h100q37 0 50 -47l198 -686l172 686q4 18 16.5 32.5t30.5 14.5h91q47 0 34 -49l-319 -1247q-10 -39 -43 -70.5t-98 -31.5h-154q-18 0 -33.5 13t-15.5 34v69q0 23 15.5 35t33.5 12h86q70 0 84 72l27 139zM127 1245q0 45 31.5 77t74.5 32 q45 0 77 -32t32 -77q0 -43 -32 -74.5t-77 -31.5q-43 0 -74.5 31.5t-31.5 74.5zM502 1245q0 45 31.5 77t74.5 32q45 0 77 -32t32 -77q0 -43 -32 -74.5t-77 -31.5q-43 0 -74.5 31.5t-31.5 74.5z" />
<glyph unicode="&#x152;" horiz-adv-x="1050" d="M121 375v700q0 45 3 111.5t29.5 129t87 106.5t175.5 44q37 0 58.5 -3t37.5 -7t31.5 -7t40.5 -3h372q18 0 34 -12.5t16 -34.5v-70q0 -20 -15.5 -33.5t-34.5 -13.5h-256l2 -453h205q18 0 33.5 -12t15.5 -35v-63q0 -20 -15 -33.5t-34 -13.5h-205l-2 -508h271 q18 0 33.5 -12.5t15.5 -34.5v-70q0 -20 -15.5 -33.5t-33.5 -13.5h-387q-27 0 -43.5 -3t-32.5 -7t-35.5 -7t-52.5 -3q-115 0 -176.5 45t-89 107.5t-30.5 130t-3 112.5zM284 341q-1 -52 10 -96t39 -73t87 -29q49 0 71.5 15.5t31.5 41t9 59.5t5 73v784v73t-9.5 59.5t-34 40 t-73.5 14.5q-59 0 -87 -28t-39 -71t-10 -95t1 -99v-570q0 -47 -1 -99z" />
<glyph unicode="&#x153;" horiz-adv-x="1392" d="M82 416v176q0 106 20.5 182t52 126t70.5 80t79 44t75 18.5t57 4.5q20 0 54 -4.5t72 -17.5t76 -38.5t71 -71.5q43 61 107.5 96.5t152.5 35.5q98 0 162.5 -37t102.5 -92.5t53.5 -121t15.5 -124.5v-123q0 -37 -19.5 -63.5t-54.5 -26.5h-438q0 -98 20 -159.5t48 -95.5 t58.5 -45.5t53.5 -11.5q68 0 111.5 35t68.5 119q8 31 49 25l86 -15q39 -6 33 -41q-8 -41 -27.5 -91t-58.5 -94t-102.5 -73.5t-159.5 -29.5q-170 0 -262 129q-41 -55 -106 -92t-167 -37q-117 0 -186.5 47t-106.5 114.5t-49 142t-12 130.5zM246 459q0 -61 10 -117.5 t33.5 -99.5t59.5 -69t87 -26t87 26t59.5 69t34 99t10.5 118v86q0 63 -7.5 123.5t-28 107.5t-57 77t-98.5 30q-61 0 -98 -30t-57.5 -77t-27.5 -107.5t-7 -123.5v-86zM793 614h346q0 33 -5.5 79t-22.5 88t-51 72t-91 30t-92 -30t-53.5 -72t-24.5 -88t-6 -79z" />
<glyph unicode="&#x178;" horiz-adv-x="821" d="M55 1399q-8 18 4.5 32.5t34.5 14.5h88q20 0 30.5 -12.5t18.5 -34.5l172 -533l183 533q8 23 18 35t31 12h92q23 0 35 -14.5t4 -32.5l-281 -735v-615q0 -18 -12 -33.5t-35 -15.5h-69q-20 0 -33.5 15.5t-13.5 33.5v615zM109 1624q0 45 31.5 77t74.5 32q45 0 77 -32t32 -77 q0 -43 -32 -74.5t-77 -31.5q-43 0 -74.5 31.5t-31.5 74.5zM484 1624q0 45 31.5 77t74.5 32q45 0 77 -32t32 -77q0 -43 -32 -74.5t-77 -31.5q-43 0 -74.5 31.5t-31.5 74.5z" />
<glyph unicode="&#x2c6;" horiz-adv-x="796" d="M102.5 1164.5q-0.5 17.5 12.5 31.5l233 244q14 16 22.5 24.5t24.5 8.5h25q16 0 25.5 -8.5t21.5 -24.5l215 -244q29 -31 -2 -51l-31 -19q-10 -8 -27.5 -5t-37.5 20l-185 135l-186 -135q-18 -16 -37.5 -20.5t-30.5 1.5l-26 15q-16 10 -16.5 27.5z" />
<glyph unicode="&#x2dc;" horiz-adv-x="821" d="M125 1206q16 78 69.5 117t114.5 39q49 0 83 -20.5t63 -45.5q14 -10 33.5 -23t29.5 -16q27 -4 38 9.5t15 36.5q4 14 18.5 27t35.5 9l45 -10q16 -4 23 -18.5t3 -30.5q-12 -51 -32.5 -82t-45 -47t-50 -21.5t-48.5 -5.5q-33 0 -65.5 16.5t-65.5 43.5q-18 16 -40.5 30.5 t-35.5 16.5q-33 4 -45 -11.5t-16 -31.5q-4 -18 -13.5 -29.5t-35.5 -7.5l-51 6q-14 2 -22.5 16.5t-4.5 32.5z" />
<glyph unicode="&#x2000;" horiz-adv-x="943" />
<glyph unicode="&#x2001;" horiz-adv-x="1887" />
<glyph unicode="&#x2002;" horiz-adv-x="943" />
<glyph unicode="&#x2003;" horiz-adv-x="1887" />
<glyph unicode="&#x2004;" horiz-adv-x="629" />
<glyph unicode="&#x2005;" horiz-adv-x="471" />
<glyph unicode="&#x2006;" horiz-adv-x="314" />
<glyph unicode="&#x2007;" horiz-adv-x="314" />
<glyph unicode="&#x2008;" horiz-adv-x="235" />
<glyph unicode="&#x2009;" horiz-adv-x="377" />
<glyph unicode="&#x200a;" horiz-adv-x="104" />
<glyph unicode="&#x2010;" horiz-adv-x="774" d="M123 467v70q0 20 15.5 33.5t31.5 13.5h432q18 0 33.5 -13.5t15.5 -33.5v-70q0 -23 -15 -35t-34 -12h-432q-16 0 -31.5 12t-15.5 35z" />
<glyph unicode="&#x2011;" horiz-adv-x="774" d="M123 467v70q0 20 15.5 33.5t31.5 13.5h432q18 0 33.5 -13.5t15.5 -33.5v-70q0 -23 -15 -35t-34 -12h-432q-16 0 -31.5 12t-15.5 35z" />
<glyph unicode="&#x2012;" horiz-adv-x="774" d="M123 467v70q0 20 15.5 33.5t31.5 13.5h432q18 0 33.5 -13.5t15.5 -33.5v-70q0 -23 -15 -35t-34 -12h-432q-16 0 -31.5 12t-15.5 35z" />
<glyph unicode="&#x2013;" horiz-adv-x="702" d="M-47 467v70q0 20 15.5 33.5t31.5 13.5h702q18 0 34 -13.5t16 -33.5v-70q0 -23 -15.5 -35t-34.5 -12h-702q-16 0 -31.5 12t-15.5 35z" />
<glyph unicode="&#x2014;" horiz-adv-x="1257" d="M-47 467v70q0 20 15.5 33.5t31.5 13.5h1257q18 0 34 -13.5t16 -33.5v-70q0 -23 -15.5 -35t-34.5 -12h-1257q-16 0 -31.5 12t-15.5 35z" />
<glyph unicode="&#x2018;" horiz-adv-x="540" d="M125 1044q-2 39 2 87.5t22.5 101.5t53.5 109.5t96 109.5q25 25 48.5 23t39.5 -19q37 -39 -14 -94q-45 -47 -80 -94t-39 -82h25q59 -4 100 -50.5t37 -103.5q-2 -31 -14.5 -56.5t-33 -45t-47 -29.5t-57.5 -8q-59 4 -99 48t-40 103z" />
<glyph unicode="&#x2019;" horiz-adv-x="540" d="M125 1335q2 31 14.5 56.5t33 45t47 30t56.5 8.5q59 -4 99.5 -48.5t40.5 -103.5q2 -39 -2 -87t-22.5 -101.5t-53.5 -109.5t-96 -110q-25 -25 -48.5 -22.5t-39.5 18.5q-37 39 14 95q45 47 80 94t39 82h-25q-31 2 -56.5 15t-44 34.5t-28.5 48t-8 55.5z" />
<glyph unicode="&#x201a;" horiz-adv-x="526" d="M145 150q2 57 44 96t100 35q55 -2 93 -44t40 -100q2 -37 -2 -82t-21.5 -96t-51.5 -103.5t-91 -103.5q-25 -23 -46.5 -21.5t-37.5 17.5q-33 37 16 90q41 43 75 88t38 76l-27 2q-57 4 -95 47.5t-34 98.5z" />
<glyph unicode="&#x201c;" horiz-adv-x="800" d="M104 1059q-2 37 2.5 82t21.5 96t50 103.5t90 103.5q25 23 47.5 21.5t36.5 -17.5q33 -37 -14 -90q-41 -43 -75 -88t-38 -76l27 -2q55 -4 94 -47t35 -98q-4 -57 -46 -96.5t-99 -35.5q-55 2 -93.5 44t-38.5 100zM461 1059q-2 37 2 82t21.5 96t51 103.5t91.5 103.5 q25 23 46 21.5t38 -17.5q33 -37 -17 -90q-41 -43 -74.5 -88t-37.5 -76l26 -2q57 -4 95 -47t34 -98q-2 -57 -44 -96.5t-99 -35.5q-55 2 -93 44t-40 100z" />
<glyph unicode="&#x201d;" horiz-adv-x="800" d="M84 1339q2 57 44 96.5t99 34.5q55 -2 93 -44t40 -99q2 -37 -2 -82t-21.5 -96t-51 -103.5t-90.5 -103.5q-25 -23 -46.5 -21.5t-37.5 17.5q-33 37 16 90q41 43 75 88t38 76l-27 2q-57 4 -95 47t-34 98zM440 1339q4 57 46 96.5t100 34.5q55 -2 93 -44t38 -99q2 -37 -2 -82 t-21.5 -96t-50.5 -103.5t-90 -103.5q-25 -23 -47.5 -21.5t-36.5 17.5q-33 37 14 90q41 43 75 88t38 76l-27 2q-55 4 -94 47t-35 98z" />
<glyph unicode="&#x201e;" horiz-adv-x="882" d="M145 150q2 57 44 96t100 35q55 -2 93 -44t40 -100q2 -37 -2 -82t-21.5 -96t-51.5 -103.5t-91 -103.5q-25 -23 -46.5 -21.5t-37.5 17.5q-33 37 16 90q41 43 75 88t38 76l-27 2q-57 4 -95 47.5t-34 98.5zM502 150q4 57 46 96t99 35q55 -2 93 -44t38 -100q2 -37 -2 -82 t-21.5 -96t-50 -103.5t-90.5 -103.5q-25 -23 -47 -21.5t-37 17.5q-33 37 15 90q41 43 74.5 88t37.5 76l-26 2q-55 4 -94 47.5t-35 98.5z" />
<glyph unicode="&#x2022;" horiz-adv-x="763" d="M197 639q0 39 14 72.5t38.5 59.5t58.5 40t73 14q78 0 132 -54t54 -132q0 -39 -14 -73t-40 -58.5t-59.5 -38.5t-72.5 -14q-78 0 -131 53t-53 131z" />
<glyph unicode="&#x2026;" horiz-adv-x="1619" d="M129 139q0 59 41 100.5t98 41.5q59 0 100.5 -41t41.5 -101q0 -57 -41 -98t-101 -41q-57 0 -98 41t-41 98zM680 139q0 59 41 100.5t98 41.5q59 0 100.5 -41t41.5 -101q0 -57 -41 -98t-101 -41q-57 0 -98 41t-41 98zM1229 139q0 59 41 100.5t98 41.5q59 0 100 -41t41 -101 q0 -57 -41 -98t-100 -41q-57 0 -98 41t-41 98z" />
<glyph unicode="&#x202f;" horiz-adv-x="377" />
<glyph unicode="&#x2039;" horiz-adv-x="479" d="M41 537v24q0 16 9 28.5t24 28.5l239 261q25 29 49 4l25 -25q25 -25 -2 -70l-158 -247l162 -256q12 -18 11 -40t-11 -32l-22 -20q-12 -12 -30 -8.5t-30 20.5l-233 274q-14 16 -23.5 28.5t-9.5 29.5z" />
<glyph unicode="&#x203a;" horiz-adv-x="479" d="M79 244.5q-1 21.5 11 40.5l162 256l-158 247q-27 45 -2 70l25 25q25 25 49 -4l240 -261q14 -16 23 -28t9 -29v-24q0 -16 -9 -28.5t-23 -29.5l-234 -274q-12 -16 -29.5 -20.5t-29.5 8.5l-23 20q-10 10 -11 31.5z" />
<glyph unicode="&#x205f;" horiz-adv-x="471" />
<glyph unicode="&#x20ac;" horiz-adv-x="1062" d="M53 553v63q0 20 15.5 34t31.5 14h84q-4 70 0 131h-84q-16 0 -31.5 12t-15.5 35v63q0 20 15.5 33.5t31.5 13.5h88q8 98 32 190.5t75 164t136 115.5t216 44q78 0 136.5 -18t101.5 -48t70.5 -69t45.5 -78q8 -16 3 -33.5t-25 -27.5l-64 -29q-16 -8 -34.5 -2t-26.5 23 q-29 66 -82 92.5t-135 26.5q-80 0 -133 -28t-86 -76t-48.5 -111.5t-19.5 -135.5h363q18 0 33.5 -13t15.5 -34v-63q0 -23 -15.5 -35t-33.5 -12h-365q-2 -29 -1 -62t3 -69h260q18 0 33.5 -13.5t15.5 -34.5v-63q0 -23 -15 -35t-34 -12h-252q8 -90 25.5 -157.5t50.5 -113t85 -69 t130 -23.5q59 0 96 9.5t60.5 25t36 32.5t22.5 36q10 16 27.5 21t36.5 -5l59 -35q18 -10 23.5 -28.5t-4.5 -34.5t-29 -47t-58.5 -61.5t-106.5 -53t-173 -22.5q-123 0 -205 44t-132 116.5t-74.5 167.5t-34.5 198h-93q-16 0 -31.5 12t-15.5 35z" />
<glyph unicode="&#x2122;" horiz-adv-x="1005" d="M16 1364v33q0 25 15.5 37t34.5 12h344q20 0 33.5 -12.5t13.5 -36.5v-33q0 -18 -13.5 -33.5t-33.5 -15.5h-107v-610q0 -20 -12 -35t-35 -15h-39q-20 0 -33.5 14.5t-13.5 35.5v610h-104q-18 0 -34 15.5t-16 33.5zM512 705v692q0 20 14.5 34.5t34.5 14.5h37q41 0 47 -41 l103 -340l104 340q10 41 49 41h37q23 0 36 -14.5t13 -34.5v-692q0 -20 -13 -35t-36 -15h-37q-23 0 -36 14.5t-13 35.5v186l37 326l-76 -289q-12 -43 -47 -43h-35q-23 0 -32 10t-17 33l-74 284l37 -321v-186q0 -20 -12 -35t-35 -15h-37q-20 0 -34.5 14.5t-14.5 35.5z" />
<glyph unicode="&#x25fc;" horiz-adv-x="1034" d="M0 0v1034h1034v-1034h-1034z" />
<glyph unicode="&#xfb01;" horiz-adv-x="933" d="M51 932v57q0 20 15.5 33.5t31.5 13.5h111v105q0 162 80 233.5t221 71.5q135 0 205.5 -55.5t70.5 -180.5q0 -16 -12 -31.5t-35 -15.5h-69q-20 0 -33.5 15.5t-13.5 31.5q0 47 -33 59.5t-80 12.5q-88 0 -112.5 -37t-24.5 -106v-103h366q25 0 38.5 -13t13.5 -34v-942 q0 -20 -12.5 -33.5t-35.5 -13.5h-69q-20 0 -33.5 13.5t-13.5 33.5v838h-254v-838q0 -20 -14.5 -33.5t-32.5 -13.5h-66q-25 0 -38 13.5t-13 33.5v838h-111q-16 0 -31.5 12t-15.5 35z" />
<glyph unicode="&#xfb02;" horiz-adv-x="1003" d="M51 932v57q0 20 15.5 33.5t31.5 13.5h111v129q0 158 63.5 219.5t214.5 61.5h316q23 0 35 -15.5t12 -31.5v-1350q0 -18 -12.5 -33.5t-34.5 -15.5h-70q-20 0 -33.5 15.5t-13.5 33.5v1233h-223q-55 0 -70.5 -31.5t-15.5 -85.5v-129h182q18 0 33.5 -13t15.5 -34v-57 q0 -23 -15 -35t-34 -12h-182v-838q0 -20 -14.5 -33.5t-32.5 -13.5h-70q-25 0 -38 13.5t-13 33.5v838h-111q-16 0 -31.5 12t-15.5 35z" />
</font>
</defs>
</svg>
